<svg width="95" height="81" viewBox="0 0 95 81" fill="none" xmlns="http://www.w3.org/2000/svg">
<path d="M70.924 77.9491L69.0874 32.2428C52.3066 8.63743 42.8447 7.2875 25.6958 32.2428L24.8922 77.9491H70.924Z" fill="#972011"/>
<path d="M24.8922 3.34539L4 24.2989L19.1526 38.9203L25.6958 32.2428C42.8447 7.2875 52.3066 8.63743 69.0874 32.2428L76.5489 38.9203L90.7831 23.8384L70.1205 3L55.8862 3.23026C48.7414 11.6002 44.8306 11.0414 37.9786 3L24.8922 3.34539Z" fill="#DD2A1B"/>
<path d="M69.0874 32.2428L76.5489 38.9203L90.7831 23.8384L70.1205 3L55.8862 3.23026C48.7414 11.6002 44.8306 11.0414 37.9786 3L24.8922 3.34539L4 24.2989L19.1526 38.9203L25.6958 32.2428M69.0874 32.2428L70.924 77.9491H24.8922L25.6958 32.2428M69.0874 32.2428C52.3066 8.63743 42.8447 7.2875 25.6958 32.2428" stroke="#CB2012" stroke-width="5"/>
<rect x="37" y="23" width="1" height="1" fill="#DD2A1B"/>
<rect x="37" y="29" width="1" height="1" fill="#DD2A1B"/>
<rect x="37" y="29" width="1" height="1" fill="#DD2A1B"/>
<rect x="36" y="34" width="1" height="1" fill="#DD2A1B"/>
<rect x="37" y="34" width="1" height="1" fill="#DD2A1B"/>
<rect x="37" y="29" width="1" height="1" fill="#DD2A1B"/>
<rect x="38" y="33" width="1" height="1" fill="#DD2A1B"/>
<rect x="38" y="31" width="1" height="1" fill="#DD2A1B"/>
<rect x="39" y="31" width="1" height="1" fill="#DD2A1B"/>
<rect x="38" y="30" width="1" height="1" fill="#DD2A1B"/>
<rect x="39" y="27" width="1" height="1" fill="#DD2A1B"/>
<rect x="39" y="26" width="1" height="1" fill="#DD2A1B"/>
<rect x="38" y="26" width="1" height="1" fill="#DD2A1B"/>
<rect x="39" y="25" width="1" height="1" fill="#DD2A1B"/>
<rect x="38" y="23" width="1" height="1" fill="#DD2A1B"/>
<rect x="37" y="24" width="1" height="1" fill="#DD2A1B"/>
<rect x="38" y="24" width="1" height="1" fill="#DD2A1B"/>
<rect x="45" y="21" width="1" height="1" fill="#DD2A1B"/>
<rect x="45" y="27" width="1" height="1" fill="#DD2A1B"/>
<rect x="45" y="27" width="1" height="1" fill="#DD2A1B"/>
<rect x="44" y="32" width="1" height="1" fill="#DD2A1B"/>
<rect x="45" y="32" width="1" height="1" fill="#DD2A1B"/>
<rect x="45" y="27" width="1" height="1" fill="#DD2A1B"/>
<rect x="46" y="31" width="1" height="1" fill="#DD2A1B"/>
<rect x="46" y="29" width="1" height="1" fill="#DD2A1B"/>
<rect x="47" y="29" width="1" height="1" fill="#DD2A1B"/>
<rect x="46" y="28" width="1" height="1" fill="#DD2A1B"/>
<rect x="47" y="25" width="1" height="1" fill="#DD2A1B"/>
<rect x="47" y="24" width="1" height="1" fill="#DD2A1B"/>
<rect x="46" y="24" width="1" height="1" fill="#DD2A1B"/>
<rect x="47" y="23" width="1" height="1" fill="#DD2A1B"/>
<rect x="46" y="21" width="1" height="1" fill="#DD2A1B"/>
<rect x="45" y="22" width="1" height="1" fill="#DD2A1B"/>
<rect x="46" y="22" width="1" height="1" fill="#DD2A1B"/>
<rect x="52" y="22" width="1" height="1" fill="#DD2A1B"/>
<rect x="52" y="28" width="1" height="1" fill="#DD2A1B"/>
<rect x="52" y="28" width="1" height="1" fill="#DD2A1B"/>
<rect x="51" y="33" width="1" height="1" fill="#DD2A1B"/>
<rect x="52" y="33" width="1" height="1" fill="#DD2A1B"/>
<rect x="52" y="28" width="1" height="1" fill="#DD2A1B"/>
<rect x="53" y="32" width="1" height="1" fill="#DD2A1B"/>
<rect x="53" y="30" width="1" height="1" fill="#DD2A1B"/>
<rect x="54" y="30" width="1" height="1" fill="#DD2A1B"/>
<rect x="53" y="29" width="1" height="1" fill="#DD2A1B"/>
<rect x="54" y="26" width="1" height="1" fill="#DD2A1B"/>
<rect x="54" y="25" width="1" height="1" fill="#DD2A1B"/>
<rect x="53" y="25" width="1" height="1" fill="#DD2A1B"/>
<rect x="54" y="24" width="1" height="1" fill="#DD2A1B"/>
<rect x="53" y="22" width="1" height="1" fill="#DD2A1B"/>
<rect x="52" y="23" width="1" height="1" fill="#DD2A1B"/>
<rect x="53" y="23" width="1" height="1" fill="#DD2A1B"/>
<rect x="41" y="20" width="1" height="1" fill="#DD2A1B"/>
<rect x="41" y="26" width="1" height="1" fill="#DD2A1B"/>
<rect x="41" y="26" width="1" height="1" fill="#DD2A1B"/>
<rect x="40" y="31" width="1" height="1" fill="#DD2A1B"/>
<rect x="41" y="31" width="1" height="1" fill="#DD2A1B"/>
<rect x="41" y="26" width="1" height="1" fill="#DD2A1B"/>
<rect x="42" y="30" width="1" height="1" fill="#DD2A1B"/>
<rect x="42" y="28" width="1" height="1" fill="#DD2A1B"/>
<rect x="43" y="28" width="1" height="1" fill="#DD2A1B"/>
<rect x="42" y="27" width="1" height="1" fill="#DD2A1B"/>
<rect x="43" y="24" width="1" height="1" fill="#DD2A1B"/>
<rect x="43" y="23" width="1" height="1" fill="#DD2A1B"/>
<rect x="42" y="23" width="1" height="1" fill="#DD2A1B"/>
<rect x="43" y="22" width="1" height="1" fill="#DD2A1B"/>
<rect x="42" y="20" width="1" height="1" fill="#DD2A1B"/>
<rect x="41" y="21" width="1" height="1" fill="#DD2A1B"/>
<rect x="42" y="21" width="1" height="1" fill="#DD2A1B"/>
<rect x="58" y="27" width="1" height="1" fill="#DD2A1B"/>
<rect x="58" y="33" width="1" height="1" fill="#DD2A1B"/>
<rect x="58" y="33" width="1" height="1" fill="#DD2A1B"/>
<rect x="57" y="38" width="1" height="1" fill="#DD2A1B"/>
<rect x="58" y="38" width="1" height="1" fill="#DD2A1B"/>
<rect x="58" y="33" width="1" height="1" fill="#DD2A1B"/>
<rect x="59" y="37" width="1" height="1" fill="#DD2A1B"/>
<rect x="59" y="35" width="1" height="1" fill="#DD2A1B"/>
<rect x="60" y="35" width="1" height="1" fill="#DD2A1B"/>
<rect x="59" y="34" width="1" height="1" fill="#DD2A1B"/>
<rect x="60" y="31" width="1" height="1" fill="#DD2A1B"/>
<rect x="60" y="30" width="1" height="1" fill="#DD2A1B"/>
<rect x="59" y="30" width="1" height="1" fill="#DD2A1B"/>
<rect x="60" y="29" width="1" height="1" fill="#DD2A1B"/>
<rect x="59" y="27" width="1" height="1" fill="#DD2A1B"/>
<rect x="58" y="28" width="1" height="1" fill="#DD2A1B"/>
<rect x="59" y="28" width="1" height="1" fill="#DD2A1B"/>
<rect x="56" y="44" width="1" height="1" fill="#DD2A1B"/>
<rect x="56" y="50" width="1" height="1" fill="#DD2A1B"/>
<rect x="56" y="50" width="1" height="1" fill="#DD2A1B"/>
<rect x="55" y="55" width="1" height="1" fill="#DD2A1B"/>
<rect x="56" y="55" width="1" height="1" fill="#DD2A1B"/>
<rect x="56" y="50" width="1" height="1" fill="#DD2A1B"/>
<rect x="57" y="54" width="1" height="1" fill="#DD2A1B"/>
<rect x="57" y="52" width="1" height="1" fill="#DD2A1B"/>
<rect x="58" y="52" width="1" height="1" fill="#DD2A1B"/>
<rect x="57" y="51" width="1" height="1" fill="#DD2A1B"/>
<rect x="58" y="48" width="1" height="1" fill="#DD2A1B"/>
<rect x="58" y="47" width="1" height="1" fill="#DD2A1B"/>
<rect x="57" y="47" width="1" height="1" fill="#DD2A1B"/>
<rect x="58" y="46" width="1" height="1" fill="#DD2A1B"/>
<rect x="57" y="44" width="1" height="1" fill="#DD2A1B"/>
<rect x="56" y="45" width="1" height="1" fill="#DD2A1B"/>
<rect x="57" y="45" width="1" height="1" fill="#DD2A1B"/>
<rect x="51" y="40" width="1" height="1" fill="#DD2A1B"/>
<rect x="51" y="46" width="1" height="1" fill="#DD2A1B"/>
<rect x="51" y="46" width="1" height="1" fill="#DD2A1B"/>
<rect x="50" y="51" width="1" height="1" fill="#DD2A1B"/>
<rect x="51" y="51" width="1" height="1" fill="#DD2A1B"/>
<rect x="51" y="46" width="1" height="1" fill="#DD2A1B"/>
<rect x="52" y="50" width="1" height="1" fill="#DD2A1B"/>
<rect x="52" y="48" width="1" height="1" fill="#DD2A1B"/>
<rect x="53" y="48" width="1" height="1" fill="#DD2A1B"/>
<rect x="52" y="47" width="1" height="1" fill="#DD2A1B"/>
<rect x="53" y="44" width="1" height="1" fill="#DD2A1B"/>
<rect x="53" y="43" width="1" height="1" fill="#DD2A1B"/>
<rect x="52" y="43" width="1" height="1" fill="#DD2A1B"/>
<rect x="53" y="42" width="1" height="1" fill="#DD2A1B"/>
<rect x="52" y="40" width="1" height="1" fill="#DD2A1B"/>
<rect x="51" y="41" width="1" height="1" fill="#DD2A1B"/>
<rect x="52" y="41" width="1" height="1" fill="#DD2A1B"/>
<rect x="36" y="45" width="1" height="1" fill="#DD2A1B"/>
<rect x="36" y="51" width="1" height="1" fill="#DD2A1B"/>
<rect x="36" y="51" width="1" height="1" fill="#DD2A1B"/>
<rect x="35" y="56" width="1" height="1" fill="#DD2A1B"/>
<rect x="36" y="56" width="1" height="1" fill="#DD2A1B"/>
<rect x="36" y="51" width="1" height="1" fill="#DD2A1B"/>
<rect x="37" y="55" width="1" height="1" fill="#DD2A1B"/>
<rect x="37" y="53" width="1" height="1" fill="#DD2A1B"/>
<rect x="38" y="53" width="1" height="1" fill="#DD2A1B"/>
<rect x="37" y="52" width="1" height="1" fill="#DD2A1B"/>
<rect x="38" y="49" width="1" height="1" fill="#DD2A1B"/>
<rect x="38" y="48" width="1" height="1" fill="#DD2A1B"/>
<rect x="37" y="48" width="1" height="1" fill="#DD2A1B"/>
<rect x="38" y="47" width="1" height="1" fill="#DD2A1B"/>
<rect x="37" y="45" width="1" height="1" fill="#DD2A1B"/>
<rect x="36" y="46" width="1" height="1" fill="#DD2A1B"/>
<rect x="37" y="46" width="1" height="1" fill="#DD2A1B"/>
<rect x="30" y="37" width="1" height="1" fill="#DD2A1B"/>
<rect x="30" y="43" width="1" height="1" fill="#DD2A1B"/>
<rect x="30" y="43" width="1" height="1" fill="#DD2A1B"/>
<rect x="29" y="48" width="1" height="1" fill="#DD2A1B"/>
<rect x="30" y="48" width="1" height="1" fill="#DD2A1B"/>
<rect x="30" y="43" width="1" height="1" fill="#DD2A1B"/>
<rect x="31" y="47" width="1" height="1" fill="#DD2A1B"/>
<rect x="31" y="45" width="1" height="1" fill="#DD2A1B"/>
<rect x="32" y="45" width="1" height="1" fill="#DD2A1B"/>
<rect x="31" y="44" width="1" height="1" fill="#DD2A1B"/>
<rect x="32" y="41" width="1" height="1" fill="#DD2A1B"/>
<rect x="32" y="40" width="1" height="1" fill="#DD2A1B"/>
<rect x="31" y="40" width="1" height="1" fill="#DD2A1B"/>
<rect x="32" y="39" width="1" height="1" fill="#DD2A1B"/>
<rect x="31" y="37" width="1" height="1" fill="#DD2A1B"/>
<rect x="30" y="38" width="1" height="1" fill="#DD2A1B"/>
<rect x="31" y="38" width="1" height="1" fill="#DD2A1B"/>
<rect x="33" y="30" width="1" height="1" fill="#DD2A1B"/>
<rect x="33" y="36" width="1" height="1" fill="#DD2A1B"/>
<rect x="33" y="36" width="1" height="1" fill="#DD2A1B"/>
<rect x="32" y="41" width="1" height="1" fill="#DD2A1B"/>
<rect x="33" y="41" width="1" height="1" fill="#DD2A1B"/>
<rect x="33" y="36" width="1" height="1" fill="#DD2A1B"/>
<rect x="34" y="40" width="1" height="1" fill="#DD2A1B"/>
<rect x="34" y="38" width="1" height="1" fill="#DD2A1B"/>
<rect x="35" y="38" width="1" height="1" fill="#DD2A1B"/>
<rect x="34" y="37" width="1" height="1" fill="#DD2A1B"/>
<rect x="35" y="34" width="1" height="1" fill="#DD2A1B"/>
<rect x="35" y="33" width="1" height="1" fill="#DD2A1B"/>
<rect x="34" y="33" width="1" height="1" fill="#DD2A1B"/>
<rect x="35" y="32" width="1" height="1" fill="#DD2A1B"/>
<rect x="34" y="30" width="1" height="1" fill="#DD2A1B"/>
<rect x="33" y="31" width="1" height="1" fill="#DD2A1B"/>
<rect x="34" y="31" width="1" height="1" fill="#DD2A1B"/>
<rect x="54" y="25" width="1" height="1" fill="#DD2A1B"/>
<rect x="54" y="31" width="1" height="1" fill="#DD2A1B"/>
<rect x="54" y="31" width="1" height="1" fill="#DD2A1B"/>
<rect x="53" y="36" width="1" height="1" fill="#DD2A1B"/>
<rect x="54" y="36" width="1" height="1" fill="#DD2A1B"/>
<rect x="54" y="31" width="1" height="1" fill="#DD2A1B"/>
<rect x="55" y="35" width="1" height="1" fill="#DD2A1B"/>
<rect x="55" y="33" width="1" height="1" fill="#DD2A1B"/>
<rect x="56" y="33" width="1" height="1" fill="#DD2A1B"/>
<rect x="55" y="32" width="1" height="1" fill="#DD2A1B"/>
<rect x="56" y="29" width="1" height="1" fill="#DD2A1B"/>
<rect x="56" y="28" width="1" height="1" fill="#DD2A1B"/>
<rect x="55" y="28" width="1" height="1" fill="#DD2A1B"/>
<rect x="56" y="27" width="1" height="1" fill="#DD2A1B"/>
<rect x="55" y="25" width="1" height="1" fill="#DD2A1B"/>
<rect x="54" y="26" width="1" height="1" fill="#DD2A1B"/>
<rect x="55" y="26" width="1" height="1" fill="#DD2A1B"/>
<rect x="49" y="20" width="1" height="1" fill="#DD2A1B"/>
<rect x="49" y="26" width="1" height="1" fill="#DD2A1B"/>
<rect x="49" y="26" width="1" height="1" fill="#DD2A1B"/>
<rect x="48" y="31" width="1" height="1" fill="#DD2A1B"/>
<rect x="49" y="31" width="1" height="1" fill="#DD2A1B"/>
<rect x="49" y="26" width="1" height="1" fill="#DD2A1B"/>
<rect x="50" y="30" width="1" height="1" fill="#DD2A1B"/>
<rect x="50" y="28" width="1" height="1" fill="#DD2A1B"/>
<rect x="51" y="28" width="1" height="1" fill="#DD2A1B"/>
<rect x="50" y="27" width="1" height="1" fill="#DD2A1B"/>
<rect x="51" y="24" width="1" height="1" fill="#DD2A1B"/>
<rect x="51" y="23" width="1" height="1" fill="#DD2A1B"/>
<rect x="50" y="23" width="1" height="1" fill="#DD2A1B"/>
<rect x="51" y="22" width="1" height="1" fill="#DD2A1B"/>
<rect x="50" y="20" width="1" height="1" fill="#DD2A1B"/>
<rect x="49" y="21" width="1" height="1" fill="#DD2A1B"/>
<rect x="50" y="21" width="1" height="1" fill="#DD2A1B"/>
<rect x="56" y="42" width="1" height="1" fill="#DD2A1B"/>
<rect x="56" y="48" width="1" height="1" fill="#DD2A1B"/>
<rect x="56" y="48" width="1" height="1" fill="#DD2A1B"/>
<rect x="55" y="53" width="1" height="1" fill="#DD2A1B"/>
<rect x="56" y="53" width="1" height="1" fill="#DD2A1B"/>
<rect x="56" y="48" width="1" height="1" fill="#DD2A1B"/>
<rect x="57" y="51" width="1" height="1" fill="#DD2A1B"/>
<rect x="60" y="33" width="1" height="1" fill="#DD2A1B"/>
<rect x="60" y="39" width="1" height="1" fill="#DD2A1B"/>
<rect x="60" y="39" width="1" height="1" fill="#DD2A1B"/>
<rect x="59" y="44" width="1" height="1" fill="#DD2A1B"/>
<rect x="60" y="44" width="1" height="1" fill="#DD2A1B"/>
<rect x="60" y="39" width="1" height="1" fill="#DD2A1B"/>
<rect x="61" y="43" width="1" height="1" fill="#DD2A1B"/>
<rect x="61" y="41" width="1" height="1" fill="#DD2A1B"/>
<rect x="62" y="41" width="1" height="1" fill="#DD2A1B"/>
<rect x="61" y="40" width="1" height="1" fill="#DD2A1B"/>
<rect x="62" y="37" width="1" height="1" fill="#DD2A1B"/>
<rect x="62" y="36" width="1" height="1" fill="#DD2A1B"/>
<rect x="61" y="36" width="1" height="1" fill="#DD2A1B"/>
<rect x="62" y="35" width="1" height="1" fill="#DD2A1B"/>
<rect x="61" y="33" width="1" height="1" fill="#DD2A1B"/>
<rect x="60" y="34" width="1" height="1" fill="#DD2A1B"/>
<rect x="61" y="34" width="1" height="1" fill="#DD2A1B"/>
<rect x="55" y="33" width="1" height="1" fill="#DD2A1B"/>
<rect x="55" y="39" width="1" height="1" fill="#DD2A1B"/>
<rect x="55" y="39" width="1" height="1" fill="#DD2A1B"/>
<rect x="54" y="44" width="1" height="1" fill="#DD2A1B"/>
<rect x="55" y="44" width="1" height="1" fill="#DD2A1B"/>
<rect x="55" y="39" width="1" height="1" fill="#DD2A1B"/>
<rect x="56" y="43" width="1" height="1" fill="#DD2A1B"/>
<rect x="56" y="41" width="1" height="1" fill="#DD2A1B"/>
<rect x="57" y="41" width="1" height="1" fill="#DD2A1B"/>
<rect x="56" y="40" width="1" height="1" fill="#DD2A1B"/>
<rect x="57" y="37" width="1" height="1" fill="#DD2A1B"/>
<rect x="57" y="36" width="1" height="1" fill="#DD2A1B"/>
<rect x="56" y="36" width="1" height="1" fill="#DD2A1B"/>
<rect x="57" y="35" width="1" height="1" fill="#DD2A1B"/>
<rect x="56" y="33" width="1" height="1" fill="#DD2A1B"/>
<rect x="55" y="34" width="1" height="1" fill="#DD2A1B"/>
<rect x="56" y="34" width="1" height="1" fill="#DD2A1B"/>
<rect x="63" y="45" width="1" height="1" fill="#DD2A1B"/>
<rect x="63" y="51" width="1" height="1" fill="#DD2A1B"/>
<rect x="63" y="51" width="1" height="1" fill="#DD2A1B"/>
<rect x="62" y="56" width="1" height="1" fill="#DD2A1B"/>
<rect x="63" y="56" width="1" height="1" fill="#DD2A1B"/>
<rect x="63" y="51" width="1" height="1" fill="#DD2A1B"/>
<rect x="64" y="55" width="1" height="1" fill="#DD2A1B"/>
<rect x="64" y="53" width="1" height="1" fill="#DD2A1B"/>
<rect x="65" y="53" width="1" height="1" fill="#DD2A1B"/>
<rect x="64" y="52" width="1" height="1" fill="#DD2A1B"/>
<rect x="65" y="49" width="1" height="1" fill="#DD2A1B"/>
<rect x="65" y="48" width="1" height="1" fill="#DD2A1B"/>
<rect x="64" y="48" width="1" height="1" fill="#DD2A1B"/>
<rect x="65" y="47" width="1" height="1" fill="#DD2A1B"/>
<rect x="64" y="45" width="1" height="1" fill="#DD2A1B"/>
<rect x="63" y="46" width="1" height="1" fill="#DD2A1B"/>
<rect x="64" y="46" width="1" height="1" fill="#DD2A1B"/>
<rect x="57" y="50" width="1" height="1" fill="#DD2A1B"/>
<rect x="58" y="50" width="1" height="1" fill="#DD2A1B"/>
<rect x="57" y="49" width="1" height="1" fill="#DD2A1B"/>
<rect x="58" y="46" width="1" height="1" fill="#DD2A1B"/>
<rect x="58" y="45" width="1" height="1" fill="#DD2A1B"/>
<rect x="57" y="45" width="1" height="1" fill="#DD2A1B"/>
<rect x="58" y="44" width="1" height="1" fill="#DD2A1B"/>
<rect x="57" y="42" width="1" height="1" fill="#DD2A1B"/>
<rect x="56" y="43" width="1" height="1" fill="#DD2A1B"/>
<rect x="57" y="43" width="1" height="1" fill="#DD2A1B"/>
<rect x="53" y="49" width="1" height="1" fill="#DD2A1B"/>
<rect x="53" y="55" width="1" height="1" fill="#DD2A1B"/>
<rect x="53" y="55" width="1" height="1" fill="#DD2A1B"/>
<rect x="52" y="60" width="1" height="1" fill="#DD2A1B"/>
<rect x="53" y="60" width="1" height="1" fill="#DD2A1B"/>
<rect x="53" y="55" width="1" height="1" fill="#DD2A1B"/>
<rect x="54" y="59" width="1" height="1" fill="#DD2A1B"/>
<rect x="54" y="57" width="1" height="1" fill="#DD2A1B"/>
<rect x="55" y="57" width="1" height="1" fill="#DD2A1B"/>
<rect x="54" y="56" width="1" height="1" fill="#DD2A1B"/>
<rect x="55" y="53" width="1" height="1" fill="#DD2A1B"/>
<rect x="55" y="52" width="1" height="1" fill="#DD2A1B"/>
<rect x="54" y="52" width="1" height="1" fill="#DD2A1B"/>
<rect x="55" y="51" width="1" height="1" fill="#DD2A1B"/>
<rect x="54" y="49" width="1" height="1" fill="#DD2A1B"/>
<rect x="53" y="50" width="1" height="1" fill="#DD2A1B"/>
<rect x="54" y="50" width="1" height="1" fill="#DD2A1B"/>
<rect x="48" y="44" width="1" height="1" fill="#DD2A1B"/>
<rect x="48" y="50" width="1" height="1" fill="#DD2A1B"/>
<rect x="48" y="50" width="1" height="1" fill="#DD2A1B"/>
<rect x="47" y="55" width="1" height="1" fill="#DD2A1B"/>
<rect x="48" y="55" width="1" height="1" fill="#DD2A1B"/>
<rect x="48" y="50" width="1" height="1" fill="#DD2A1B"/>
<rect x="49" y="54" width="1" height="1" fill="#DD2A1B"/>
<rect x="49" y="52" width="1" height="1" fill="#DD2A1B"/>
<rect x="50" y="52" width="1" height="1" fill="#DD2A1B"/>
<rect x="49" y="51" width="1" height="1" fill="#DD2A1B"/>
<rect x="50" y="48" width="1" height="1" fill="#DD2A1B"/>
<rect x="50" y="47" width="1" height="1" fill="#DD2A1B"/>
<rect x="49" y="47" width="1" height="1" fill="#DD2A1B"/>
<rect x="50" y="46" width="1" height="1" fill="#DD2A1B"/>
<rect x="49" y="44" width="1" height="1" fill="#DD2A1B"/>
<rect x="48" y="45" width="1" height="1" fill="#DD2A1B"/>
<rect x="49" y="45" width="1" height="1" fill="#DD2A1B"/>
<rect x="46" y="57" width="1" height="1" fill="#DD2A1B"/>
<rect x="46" y="63" width="1" height="1" fill="#DD2A1B"/>
<rect x="46" y="63" width="1" height="1" fill="#DD2A1B"/>
<rect x="45" y="68" width="1" height="1" fill="#DD2A1B"/>
<rect x="46" y="68" width="1" height="1" fill="#DD2A1B"/>
<rect x="46" y="63" width="1" height="1" fill="#DD2A1B"/>
<rect x="47" y="67" width="1" height="1" fill="#DD2A1B"/>
<rect x="47" y="65" width="1" height="1" fill="#DD2A1B"/>
<rect x="48" y="65" width="1" height="1" fill="#DD2A1B"/>
<rect x="47" y="64" width="1" height="1" fill="#DD2A1B"/>
<rect x="48" y="61" width="1" height="1" fill="#DD2A1B"/>
<rect x="48" y="60" width="1" height="1" fill="#DD2A1B"/>
<rect x="47" y="60" width="1" height="1" fill="#DD2A1B"/>
<rect x="48" y="59" width="1" height="1" fill="#DD2A1B"/>
<rect x="47" y="57" width="1" height="1" fill="#DD2A1B"/>
<rect x="46" y="58" width="1" height="1" fill="#DD2A1B"/>
<rect x="47" y="58" width="1" height="1" fill="#DD2A1B"/>
<rect x="51" y="52" width="1" height="1" fill="#DD2A1B"/>
<rect x="51" y="58" width="1" height="1" fill="#DD2A1B"/>
<rect x="51" y="58" width="1" height="1" fill="#DD2A1B"/>
<rect x="50" y="63" width="1" height="1" fill="#DD2A1B"/>
<rect x="51" y="63" width="1" height="1" fill="#DD2A1B"/>
<rect x="51" y="58" width="1" height="1" fill="#DD2A1B"/>
<rect x="52" y="62" width="1" height="1" fill="#DD2A1B"/>
<rect x="52" y="60" width="1" height="1" fill="#DD2A1B"/>
<rect x="53" y="60" width="1" height="1" fill="#DD2A1B"/>
<rect x="52" y="59" width="1" height="1" fill="#DD2A1B"/>
<rect x="53" y="56" width="1" height="1" fill="#DD2A1B"/>
<rect x="53" y="55" width="1" height="1" fill="#DD2A1B"/>
<rect x="52" y="55" width="1" height="1" fill="#DD2A1B"/>
<rect x="53" y="54" width="1" height="1" fill="#DD2A1B"/>
<rect x="52" y="52" width="1" height="1" fill="#DD2A1B"/>
<rect x="51" y="53" width="1" height="1" fill="#DD2A1B"/>
<rect x="52" y="53" width="1" height="1" fill="#DD2A1B"/>
<rect x="53" y="49" width="1" height="1" fill="#DD2A1B"/>
<rect x="53" y="55" width="1" height="1" fill="#DD2A1B"/>
<rect x="53" y="55" width="1" height="1" fill="#DD2A1B"/>
<rect x="52" y="60" width="1" height="1" fill="#DD2A1B"/>
<rect x="53" y="60" width="1" height="1" fill="#DD2A1B"/>
<rect x="53" y="55" width="1" height="1" fill="#DD2A1B"/>
<rect x="54" y="59" width="1" height="1" fill="#DD2A1B"/>
<rect x="54" y="57" width="1" height="1" fill="#DD2A1B"/>
<rect x="55" y="57" width="1" height="1" fill="#DD2A1B"/>
<rect x="54" y="56" width="1" height="1" fill="#DD2A1B"/>
<rect x="55" y="53" width="1" height="1" fill="#DD2A1B"/>
<rect x="55" y="52" width="1" height="1" fill="#DD2A1B"/>
<rect x="54" y="52" width="1" height="1" fill="#DD2A1B"/>
<rect x="55" y="51" width="1" height="1" fill="#DD2A1B"/>
<rect x="54" y="49" width="1" height="1" fill="#DD2A1B"/>
<rect x="53" y="50" width="1" height="1" fill="#DD2A1B"/>
<rect x="54" y="50" width="1" height="1" fill="#DD2A1B"/>
<rect x="57" y="57" width="1" height="1" fill="#DD2A1B"/>
<rect x="57" y="63" width="1" height="1" fill="#DD2A1B"/>
<rect x="57" y="63" width="1" height="1" fill="#DD2A1B"/>
<rect x="56" y="68" width="1" height="1" fill="#DD2A1B"/>
<rect x="57" y="68" width="1" height="1" fill="#DD2A1B"/>
<rect x="57" y="63" width="1" height="1" fill="#DD2A1B"/>
<rect x="58" y="67" width="1" height="1" fill="#DD2A1B"/>
<rect x="58" y="65" width="1" height="1" fill="#DD2A1B"/>
<rect x="59" y="65" width="1" height="1" fill="#DD2A1B"/>
<rect x="58" y="64" width="1" height="1" fill="#DD2A1B"/>
<rect x="59" y="61" width="1" height="1" fill="#DD2A1B"/>
<rect x="59" y="60" width="1" height="1" fill="#DD2A1B"/>
<rect x="58" y="60" width="1" height="1" fill="#DD2A1B"/>
<rect x="59" y="59" width="1" height="1" fill="#DD2A1B"/>
<rect x="58" y="57" width="1" height="1" fill="#DD2A1B"/>
<rect x="57" y="58" width="1" height="1" fill="#DD2A1B"/>
<rect x="58" y="58" width="1" height="1" fill="#DD2A1B"/>
<rect x="52" y="62" width="1" height="1" fill="#DD2A1B"/>
<rect x="52" y="68" width="1" height="1" fill="#DD2A1B"/>
<rect x="52" y="68" width="1" height="1" fill="#DD2A1B"/>
<rect x="51" y="73" width="1" height="1" fill="#DD2A1B"/>
<rect x="52" y="73" width="1" height="1" fill="#DD2A1B"/>
<rect x="52" y="68" width="1" height="1" fill="#DD2A1B"/>
<rect x="53" y="72" width="1" height="1" fill="#DD2A1B"/>
<rect x="53" y="70" width="1" height="1" fill="#DD2A1B"/>
<rect x="54" y="70" width="1" height="1" fill="#DD2A1B"/>
<rect x="53" y="69" width="1" height="1" fill="#DD2A1B"/>
<rect x="54" y="66" width="1" height="1" fill="#DD2A1B"/>
<rect x="54" y="65" width="1" height="1" fill="#DD2A1B"/>
<rect x="53" y="65" width="1" height="1" fill="#DD2A1B"/>
<rect x="54" y="64" width="1" height="1" fill="#DD2A1B"/>
<rect x="53" y="62" width="1" height="1" fill="#DD2A1B"/>
<rect x="52" y="63" width="1" height="1" fill="#DD2A1B"/>
<rect x="53" y="63" width="1" height="1" fill="#DD2A1B"/>
<rect x="42" y="61" width="1" height="1" fill="#DD2A1B"/>
<rect x="42" y="67" width="1" height="1" fill="#DD2A1B"/>
<rect x="42" y="67" width="1" height="1" fill="#DD2A1B"/>
<rect x="41" y="72" width="1" height="1" fill="#DD2A1B"/>
<rect x="42" y="72" width="1" height="1" fill="#DD2A1B"/>
<rect x="42" y="67" width="1" height="1" fill="#DD2A1B"/>
<rect x="43" y="71" width="1" height="1" fill="#DD2A1B"/>
<rect x="43" y="69" width="1" height="1" fill="#DD2A1B"/>
<rect x="44" y="69" width="1" height="1" fill="#DD2A1B"/>
<rect x="43" y="68" width="1" height="1" fill="#DD2A1B"/>
<rect x="44" y="65" width="1" height="1" fill="#DD2A1B"/>
<rect x="44" y="64" width="1" height="1" fill="#DD2A1B"/>
<rect x="43" y="64" width="1" height="1" fill="#DD2A1B"/>
<rect x="44" y="63" width="1" height="1" fill="#DD2A1B"/>
<rect x="43" y="61" width="1" height="1" fill="#DD2A1B"/>
<rect x="42" y="62" width="1" height="1" fill="#DD2A1B"/>
<rect x="43" y="62" width="1" height="1" fill="#DD2A1B"/>
<rect x="37" y="60" width="1" height="1" fill="#DD2A1B"/>
<rect x="37" y="66" width="1" height="1" fill="#DD2A1B"/>
<rect x="37" y="66" width="1" height="1" fill="#DD2A1B"/>
<rect x="36" y="71" width="1" height="1" fill="#DD2A1B"/>
<rect x="37" y="71" width="1" height="1" fill="#DD2A1B"/>
<rect x="37" y="66" width="1" height="1" fill="#DD2A1B"/>
<rect x="38" y="70" width="1" height="1" fill="#DD2A1B"/>
<rect x="38" y="68" width="1" height="1" fill="#DD2A1B"/>
<rect x="39" y="68" width="1" height="1" fill="#DD2A1B"/>
<rect x="38" y="67" width="1" height="1" fill="#DD2A1B"/>
<rect x="39" y="64" width="1" height="1" fill="#DD2A1B"/>
<rect x="39" y="63" width="1" height="1" fill="#DD2A1B"/>
<rect x="38" y="63" width="1" height="1" fill="#DD2A1B"/>
<rect x="39" y="62" width="1" height="1" fill="#DD2A1B"/>
<rect x="38" y="60" width="1" height="1" fill="#DD2A1B"/>
<rect x="37" y="61" width="1" height="1" fill="#DD2A1B"/>
<rect x="38" y="61" width="1" height="1" fill="#DD2A1B"/>
<rect x="38" y="48" width="1" height="1" fill="#DD2A1B"/>
<rect x="38" y="54" width="1" height="1" fill="#DD2A1B"/>
<rect x="38" y="54" width="1" height="1" fill="#DD2A1B"/>
<rect x="37" y="59" width="1" height="1" fill="#DD2A1B"/>
<rect x="38" y="59" width="1" height="1" fill="#DD2A1B"/>
<rect x="38" y="54" width="1" height="1" fill="#DD2A1B"/>
<rect x="39" y="58" width="1" height="1" fill="#DD2A1B"/>
<rect x="39" y="56" width="1" height="1" fill="#DD2A1B"/>
<rect x="40" y="56" width="1" height="1" fill="#DD2A1B"/>
<rect x="39" y="55" width="1" height="1" fill="#DD2A1B"/>
<rect x="40" y="52" width="1" height="1" fill="#DD2A1B"/>
<rect x="40" y="51" width="1" height="1" fill="#DD2A1B"/>
<rect x="39" y="51" width="1" height="1" fill="#DD2A1B"/>
<rect x="40" y="50" width="1" height="1" fill="#DD2A1B"/>
<rect x="39" y="48" width="1" height="1" fill="#DD2A1B"/>
<rect x="38" y="49" width="1" height="1" fill="#DD2A1B"/>
<rect x="39" y="49" width="1" height="1" fill="#DD2A1B"/>
<rect x="29" y="59" width="1" height="1" fill="#DD2A1B"/>
<rect x="29" y="65" width="1" height="1" fill="#DD2A1B"/>
<rect x="29" y="65" width="1" height="1" fill="#DD2A1B"/>
<rect x="28" y="70" width="1" height="1" fill="#DD2A1B"/>
<rect x="29" y="70" width="1" height="1" fill="#DD2A1B"/>
<rect x="29" y="65" width="1" height="1" fill="#DD2A1B"/>
<rect x="30" y="69" width="1" height="1" fill="#DD2A1B"/>
<rect x="30" y="67" width="1" height="1" fill="#DD2A1B"/>
<rect x="31" y="67" width="1" height="1" fill="#DD2A1B"/>
<rect x="30" y="66" width="1" height="1" fill="#DD2A1B"/>
<rect x="31" y="63" width="1" height="1" fill="#DD2A1B"/>
<rect x="31" y="62" width="1" height="1" fill="#DD2A1B"/>
<rect x="30" y="62" width="1" height="1" fill="#DD2A1B"/>
<rect x="31" y="61" width="1" height="1" fill="#DD2A1B"/>
<rect x="30" y="59" width="1" height="1" fill="#DD2A1B"/>
<rect x="29" y="60" width="1" height="1" fill="#DD2A1B"/>
<rect x="30" y="60" width="1" height="1" fill="#DD2A1B"/>
<rect x="31" y="43" width="1" height="1" fill="#DD2A1B"/>
<rect x="31" y="49" width="1" height="1" fill="#DD2A1B"/>
<rect x="31" y="49" width="1" height="1" fill="#DD2A1B"/>
<rect x="30" y="54" width="1" height="1" fill="#DD2A1B"/>
<rect x="31" y="54" width="1" height="1" fill="#DD2A1B"/>
<rect x="31" y="49" width="1" height="1" fill="#DD2A1B"/>
<rect x="32" y="53" width="1" height="1" fill="#DD2A1B"/>
<rect x="32" y="51" width="1" height="1" fill="#DD2A1B"/>
<rect x="33" y="51" width="1" height="1" fill="#DD2A1B"/>
<rect x="32" y="50" width="1" height="1" fill="#DD2A1B"/>
<rect x="33" y="47" width="1" height="1" fill="#DD2A1B"/>
<rect x="33" y="46" width="1" height="1" fill="#DD2A1B"/>
<rect x="32" y="46" width="1" height="1" fill="#DD2A1B"/>
<rect x="33" y="45" width="1" height="1" fill="#DD2A1B"/>
<rect x="32" y="43" width="1" height="1" fill="#DD2A1B"/>
<rect x="31" y="44" width="1" height="1" fill="#DD2A1B"/>
<rect x="32" y="44" width="1" height="1" fill="#DD2A1B"/>
<rect x="61" y="61" width="1" height="1" fill="#DD2A1B"/>
<rect x="61" y="67" width="1" height="1" fill="#DD2A1B"/>
<rect x="61" y="67" width="1" height="1" fill="#DD2A1B"/>
<rect x="60" y="72" width="1" height="1" fill="#DD2A1B"/>
<rect x="61" y="72" width="1" height="1" fill="#DD2A1B"/>
<rect x="61" y="67" width="1" height="1" fill="#DD2A1B"/>
<rect x="62" y="71" width="1" height="1" fill="#DD2A1B"/>
<rect x="62" y="69" width="1" height="1" fill="#DD2A1B"/>
<rect x="63" y="69" width="1" height="1" fill="#DD2A1B"/>
<rect x="62" y="68" width="1" height="1" fill="#DD2A1B"/>
<rect x="63" y="65" width="1" height="1" fill="#DD2A1B"/>
<rect x="63" y="64" width="1" height="1" fill="#DD2A1B"/>
<rect x="62" y="64" width="1" height="1" fill="#DD2A1B"/>
<rect x="63" y="63" width="1" height="1" fill="#DD2A1B"/>
<rect x="62" y="61" width="1" height="1" fill="#DD2A1B"/>
<rect x="61" y="62" width="1" height="1" fill="#DD2A1B"/>
<rect x="62" y="62" width="1" height="1" fill="#DD2A1B"/>
<rect x="54" y="62" width="1" height="1" fill="#DD2A1B"/>
<rect x="54" y="68" width="1" height="1" fill="#DD2A1B"/>
<rect x="54" y="68" width="1" height="1" fill="#DD2A1B"/>
<rect x="53" y="73" width="1" height="1" fill="#DD2A1B"/>
<rect x="54" y="73" width="1" height="1" fill="#DD2A1B"/>
<rect x="54" y="68" width="1" height="1" fill="#DD2A1B"/>
<rect x="55" y="72" width="1" height="1" fill="#DD2A1B"/>
<rect x="55" y="70" width="1" height="1" fill="#DD2A1B"/>
<rect x="56" y="70" width="1" height="1" fill="#DD2A1B"/>
<rect x="55" y="69" width="1" height="1" fill="#DD2A1B"/>
<rect x="56" y="66" width="1" height="1" fill="#DD2A1B"/>
<rect x="56" y="65" width="1" height="1" fill="#DD2A1B"/>
<rect x="55" y="65" width="1" height="1" fill="#DD2A1B"/>
<rect x="56" y="64" width="1" height="1" fill="#DD2A1B"/>
<rect x="55" y="62" width="1" height="1" fill="#DD2A1B"/>
<rect x="54" y="63" width="1" height="1" fill="#DD2A1B"/>
<rect x="55" y="63" width="1" height="1" fill="#DD2A1B"/>
<rect x="53" y="49" width="1" height="1" fill="#DD2A1B"/>
<rect x="53" y="55" width="1" height="1" fill="#DD2A1B"/>
<rect x="53" y="55" width="1" height="1" fill="#DD2A1B"/>
<rect x="52" y="60" width="1" height="1" fill="#DD2A1B"/>
<rect x="53" y="60" width="1" height="1" fill="#DD2A1B"/>
<rect x="53" y="55" width="1" height="1" fill="#DD2A1B"/>
<rect x="54" y="59" width="1" height="1" fill="#DD2A1B"/>
<rect x="54" y="57" width="1" height="1" fill="#DD2A1B"/>
<rect x="55" y="57" width="1" height="1" fill="#DD2A1B"/>
<rect x="54" y="56" width="1" height="1" fill="#DD2A1B"/>
<rect x="55" y="53" width="1" height="1" fill="#DD2A1B"/>
<rect x="55" y="52" width="1" height="1" fill="#DD2A1B"/>
<rect x="54" y="52" width="1" height="1" fill="#DD2A1B"/>
<rect x="55" y="51" width="1" height="1" fill="#DD2A1B"/>
<rect x="54" y="49" width="1" height="1" fill="#DD2A1B"/>
<rect x="53" y="50" width="1" height="1" fill="#DD2A1B"/>
<rect x="54" y="50" width="1" height="1" fill="#DD2A1B"/>
<rect x="44" y="58" width="1" height="1" fill="#DD2A1B"/>
<rect x="44" y="64" width="1" height="1" fill="#DD2A1B"/>
<rect x="44" y="64" width="1" height="1" fill="#DD2A1B"/>
<rect x="43" y="69" width="1" height="1" fill="#DD2A1B"/>
<rect x="44" y="69" width="1" height="1" fill="#DD2A1B"/>
<rect x="44" y="64" width="1" height="1" fill="#DD2A1B"/>
<rect x="45" y="68" width="1" height="1" fill="#DD2A1B"/>
<rect x="45" y="66" width="1" height="1" fill="#DD2A1B"/>
<rect x="46" y="66" width="1" height="1" fill="#DD2A1B"/>
<rect x="45" y="65" width="1" height="1" fill="#DD2A1B"/>
<rect x="46" y="62" width="1" height="1" fill="#DD2A1B"/>
<rect x="46" y="61" width="1" height="1" fill="#DD2A1B"/>
<rect x="45" y="61" width="1" height="1" fill="#DD2A1B"/>
<rect x="46" y="60" width="1" height="1" fill="#DD2A1B"/>
<rect x="45" y="58" width="1" height="1" fill="#DD2A1B"/>
<rect x="44" y="59" width="1" height="1" fill="#DD2A1B"/>
<rect x="45" y="59" width="1" height="1" fill="#DD2A1B"/>
<rect x="33" y="57" width="1" height="1" fill="#DD2A1B"/>
<rect x="33" y="63" width="1" height="1" fill="#DD2A1B"/>
<rect x="33" y="63" width="1" height="1" fill="#DD2A1B"/>
<rect x="32" y="68" width="1" height="1" fill="#DD2A1B"/>
<rect x="33" y="68" width="1" height="1" fill="#DD2A1B"/>
<rect x="33" y="63" width="1" height="1" fill="#DD2A1B"/>
<rect x="34" y="67" width="1" height="1" fill="#DD2A1B"/>
<rect x="34" y="65" width="1" height="1" fill="#DD2A1B"/>
<rect x="35" y="65" width="1" height="1" fill="#DD2A1B"/>
<rect x="34" y="64" width="1" height="1" fill="#DD2A1B"/>
<rect x="35" y="61" width="1" height="1" fill="#DD2A1B"/>
<rect x="35" y="60" width="1" height="1" fill="#DD2A1B"/>
<rect x="34" y="60" width="1" height="1" fill="#DD2A1B"/>
<rect x="35" y="59" width="1" height="1" fill="#DD2A1B"/>
<rect x="34" y="57" width="1" height="1" fill="#DD2A1B"/>
<rect x="33" y="58" width="1" height="1" fill="#DD2A1B"/>
<rect x="34" y="58" width="1" height="1" fill="#DD2A1B"/>
<rect x="48" y="63" width="1" height="1" fill="#DD2A1B"/>
<rect x="48" y="69" width="1" height="1" fill="#DD2A1B"/>
<rect x="48" y="69" width="1" height="1" fill="#DD2A1B"/>
<rect x="47" y="74" width="1" height="1" fill="#DD2A1B"/>
<rect x="48" y="74" width="1" height="1" fill="#DD2A1B"/>
<rect x="48" y="69" width="1" height="1" fill="#DD2A1B"/>
<rect x="49" y="73" width="1" height="1" fill="#DD2A1B"/>
<rect x="49" y="71" width="1" height="1" fill="#DD2A1B"/>
<rect x="50" y="71" width="1" height="1" fill="#DD2A1B"/>
<rect x="49" y="70" width="1" height="1" fill="#DD2A1B"/>
<rect x="50" y="67" width="1" height="1" fill="#DD2A1B"/>
<rect x="50" y="66" width="1" height="1" fill="#DD2A1B"/>
<rect x="49" y="66" width="1" height="1" fill="#DD2A1B"/>
<rect x="50" y="65" width="1" height="1" fill="#DD2A1B"/>
<rect x="49" y="63" width="1" height="1" fill="#DD2A1B"/>
<rect x="48" y="64" width="1" height="1" fill="#DD2A1B"/>
<rect x="49" y="64" width="1" height="1" fill="#DD2A1B"/>
<rect x="53" y="49" width="1" height="1" fill="#DD2A1B"/>
<rect x="53" y="55" width="1" height="1" fill="#DD2A1B"/>
<rect x="53" y="55" width="1" height="1" fill="#DD2A1B"/>
<rect x="52" y="60" width="1" height="1" fill="#DD2A1B"/>
<rect x="53" y="60" width="1" height="1" fill="#DD2A1B"/>
<rect x="53" y="55" width="1" height="1" fill="#DD2A1B"/>
<rect x="54" y="59" width="1" height="1" fill="#DD2A1B"/>
<rect x="54" y="57" width="1" height="1" fill="#DD2A1B"/>
<rect x="55" y="57" width="1" height="1" fill="#DD2A1B"/>
<rect x="54" y="56" width="1" height="1" fill="#DD2A1B"/>
<rect x="55" y="53" width="1" height="1" fill="#DD2A1B"/>
<rect x="55" y="52" width="1" height="1" fill="#DD2A1B"/>
<rect x="54" y="52" width="1" height="1" fill="#DD2A1B"/>
<rect x="55" y="51" width="1" height="1" fill="#DD2A1B"/>
<rect x="54" y="49" width="1" height="1" fill="#DD2A1B"/>
<rect x="53" y="50" width="1" height="1" fill="#DD2A1B"/>
<rect x="54" y="50" width="1" height="1" fill="#DD2A1B"/>
<rect x="47" y="28" width="1" height="1" fill="#DD2A1B"/>
<rect x="47" y="34" width="1" height="1" fill="#DD2A1B"/>
<rect x="47" y="34" width="1" height="1" fill="#DD2A1B"/>
<rect x="46" y="39" width="1" height="1" fill="#DD2A1B"/>
<rect x="47" y="39" width="1" height="1" fill="#DD2A1B"/>
<rect x="47" y="34" width="1" height="1" fill="#DD2A1B"/>
<rect x="48" y="38" width="1" height="1" fill="#DD2A1B"/>
<rect x="48" y="36" width="1" height="1" fill="#DD2A1B"/>
<rect x="49" y="36" width="1" height="1" fill="#DD2A1B"/>
<rect x="48" y="35" width="1" height="1" fill="#DD2A1B"/>
<rect x="49" y="32" width="1" height="1" fill="#DD2A1B"/>
<rect x="49" y="31" width="1" height="1" fill="#DD2A1B"/>
<rect x="48" y="31" width="1" height="1" fill="#DD2A1B"/>
<rect x="49" y="30" width="1" height="1" fill="#DD2A1B"/>
<rect x="48" y="28" width="1" height="1" fill="#DD2A1B"/>
<rect x="47" y="29" width="1" height="1" fill="#DD2A1B"/>
<rect x="48" y="29" width="1" height="1" fill="#DD2A1B"/>
<rect x="43" y="22" width="1" height="1" fill="#DD2A1B"/>
<rect x="43" y="28" width="1" height="1" fill="#DD2A1B"/>
<rect x="43" y="28" width="1" height="1" fill="#DD2A1B"/>
<rect x="42" y="33" width="1" height="1" fill="#DD2A1B"/>
<rect x="43" y="33" width="1" height="1" fill="#DD2A1B"/>
<rect x="43" y="28" width="1" height="1" fill="#DD2A1B"/>
<rect x="44" y="32" width="1" height="1" fill="#DD2A1B"/>
<rect x="44" y="30" width="1" height="1" fill="#DD2A1B"/>
<rect x="45" y="30" width="1" height="1" fill="#DD2A1B"/>
<rect x="44" y="29" width="1" height="1" fill="#DD2A1B"/>
<rect x="45" y="26" width="1" height="1" fill="#DD2A1B"/>
<rect x="45" y="25" width="1" height="1" fill="#DD2A1B"/>
<rect x="44" y="25" width="1" height="1" fill="#DD2A1B"/>
<rect x="45" y="24" width="1" height="1" fill="#DD2A1B"/>
<rect x="44" y="22" width="1" height="1" fill="#DD2A1B"/>
<rect x="43" y="23" width="1" height="1" fill="#DD2A1B"/>
<rect x="44" y="23" width="1" height="1" fill="#DD2A1B"/>
<rect x="49" y="34" width="1" height="1" fill="#DD2A1B"/>
<rect x="49" y="40" width="1" height="1" fill="#DD2A1B"/>
<rect x="49" y="40" width="1" height="1" fill="#DD2A1B"/>
<rect x="48" y="45" width="1" height="1" fill="#DD2A1B"/>
<rect x="49" y="45" width="1" height="1" fill="#DD2A1B"/>
<rect x="49" y="40" width="1" height="1" fill="#DD2A1B"/>
<rect x="50" y="44" width="1" height="1" fill="#DD2A1B"/>
<rect x="50" y="42" width="1" height="1" fill="#DD2A1B"/>
<rect x="51" y="42" width="1" height="1" fill="#DD2A1B"/>
<rect x="50" y="41" width="1" height="1" fill="#DD2A1B"/>
<rect x="51" y="38" width="1" height="1" fill="#DD2A1B"/>
<rect x="51" y="37" width="1" height="1" fill="#DD2A1B"/>
<rect x="50" y="37" width="1" height="1" fill="#DD2A1B"/>
<rect x="51" y="36" width="1" height="1" fill="#DD2A1B"/>
<rect x="50" y="34" width="1" height="1" fill="#DD2A1B"/>
<rect x="49" y="35" width="1" height="1" fill="#DD2A1B"/>
<rect x="50" y="35" width="1" height="1" fill="#DD2A1B"/>
<rect x="44" y="35" width="1" height="1" fill="#DD2A1B"/>
<rect x="44" y="41" width="1" height="1" fill="#DD2A1B"/>
<rect x="44" y="41" width="1" height="1" fill="#DD2A1B"/>
<rect x="43" y="46" width="1" height="1" fill="#DD2A1B"/>
<rect x="44" y="46" width="1" height="1" fill="#DD2A1B"/>
<rect x="44" y="41" width="1" height="1" fill="#DD2A1B"/>
<rect x="45" y="45" width="1" height="1" fill="#DD2A1B"/>
<rect x="45" y="43" width="1" height="1" fill="#DD2A1B"/>
<rect x="46" y="43" width="1" height="1" fill="#DD2A1B"/>
<rect x="45" y="42" width="1" height="1" fill="#DD2A1B"/>
<rect x="46" y="39" width="1" height="1" fill="#DD2A1B"/>
<rect x="46" y="38" width="1" height="1" fill="#DD2A1B"/>
<rect x="45" y="38" width="1" height="1" fill="#DD2A1B"/>
<rect x="46" y="37" width="1" height="1" fill="#DD2A1B"/>
<rect x="45" y="35" width="1" height="1" fill="#DD2A1B"/>
<rect x="44" y="36" width="1" height="1" fill="#DD2A1B"/>
<rect x="45" y="36" width="1" height="1" fill="#DD2A1B"/>
<rect x="45" y="47" width="1" height="1" fill="#DD2A1B"/>
<rect x="45" y="53" width="1" height="1" fill="#DD2A1B"/>
<rect x="45" y="53" width="1" height="1" fill="#DD2A1B"/>
<rect x="44" y="58" width="1" height="1" fill="#DD2A1B"/>
<rect x="45" y="58" width="1" height="1" fill="#DD2A1B"/>
<rect x="45" y="53" width="1" height="1" fill="#DD2A1B"/>
<rect x="46" y="57" width="1" height="1" fill="#DD2A1B"/>
<rect x="46" y="55" width="1" height="1" fill="#DD2A1B"/>
<rect x="47" y="55" width="1" height="1" fill="#DD2A1B"/>
<rect x="46" y="54" width="1" height="1" fill="#DD2A1B"/>
<rect x="47" y="51" width="1" height="1" fill="#DD2A1B"/>
<rect x="47" y="50" width="1" height="1" fill="#DD2A1B"/>
<rect x="46" y="50" width="1" height="1" fill="#DD2A1B"/>
<rect x="47" y="49" width="1" height="1" fill="#DD2A1B"/>
<rect x="46" y="47" width="1" height="1" fill="#DD2A1B"/>
<rect x="45" y="48" width="1" height="1" fill="#DD2A1B"/>
<rect x="46" y="48" width="1" height="1" fill="#DD2A1B"/>
<rect x="40" y="30" width="1" height="1" fill="#DD2A1B"/>
<rect x="40" y="36" width="1" height="1" fill="#DD2A1B"/>
<rect x="40" y="36" width="1" height="1" fill="#DD2A1B"/>
<rect x="39" y="41" width="1" height="1" fill="#DD2A1B"/>
<rect x="40" y="41" width="1" height="1" fill="#DD2A1B"/>
<rect x="40" y="36" width="1" height="1" fill="#DD2A1B"/>
<rect x="41" y="40" width="1" height="1" fill="#DD2A1B"/>
<rect x="41" y="38" width="1" height="1" fill="#DD2A1B"/>
<rect x="42" y="38" width="1" height="1" fill="#DD2A1B"/>
<rect x="41" y="37" width="1" height="1" fill="#DD2A1B"/>
<rect x="42" y="34" width="1" height="1" fill="#DD2A1B"/>
<rect x="42" y="33" width="1" height="1" fill="#DD2A1B"/>
<rect x="41" y="33" width="1" height="1" fill="#DD2A1B"/>
<rect x="42" y="32" width="1" height="1" fill="#DD2A1B"/>
<rect x="41" y="30" width="1" height="1" fill="#DD2A1B"/>
<rect x="40" y="31" width="1" height="1" fill="#DD2A1B"/>
<rect x="41" y="31" width="1" height="1" fill="#DD2A1B"/>
<rect x="42" y="44" width="1" height="1" fill="#DD2A1B"/>
<rect x="42" y="50" width="1" height="1" fill="#DD2A1B"/>
<rect x="42" y="50" width="1" height="1" fill="#DD2A1B"/>
<rect x="41" y="55" width="1" height="1" fill="#DD2A1B"/>
<rect x="42" y="55" width="1" height="1" fill="#DD2A1B"/>
<rect x="42" y="50" width="1" height="1" fill="#DD2A1B"/>
<rect x="43" y="54" width="1" height="1" fill="#DD2A1B"/>
<rect x="43" y="52" width="1" height="1" fill="#DD2A1B"/>
<rect x="44" y="52" width="1" height="1" fill="#DD2A1B"/>
<rect x="43" y="51" width="1" height="1" fill="#DD2A1B"/>
<rect x="44" y="48" width="1" height="1" fill="#DD2A1B"/>
<rect x="44" y="47" width="1" height="1" fill="#DD2A1B"/>
<rect x="43" y="47" width="1" height="1" fill="#DD2A1B"/>
<rect x="44" y="46" width="1" height="1" fill="#DD2A1B"/>
<rect x="43" y="44" width="1" height="1" fill="#DD2A1B"/>
<rect x="42" y="45" width="1" height="1" fill="#DD2A1B"/>
<rect x="43" y="45" width="1" height="1" fill="#DD2A1B"/>
<rect x="35" y="36" width="1" height="1" fill="#DD2A1B"/>
<rect x="35" y="42" width="1" height="1" fill="#DD2A1B"/>
<rect x="35" y="42" width="1" height="1" fill="#DD2A1B"/>
<rect x="34" y="47" width="1" height="1" fill="#DD2A1B"/>
<rect x="35" y="47" width="1" height="1" fill="#DD2A1B"/>
<rect x="35" y="42" width="1" height="1" fill="#DD2A1B"/>
<rect x="36" y="46" width="1" height="1" fill="#DD2A1B"/>
<rect x="36" y="44" width="1" height="1" fill="#DD2A1B"/>
<rect x="37" y="44" width="1" height="1" fill="#DD2A1B"/>
<rect x="36" y="43" width="1" height="1" fill="#DD2A1B"/>
<rect x="37" y="40" width="1" height="1" fill="#DD2A1B"/>
<rect x="37" y="39" width="1" height="1" fill="#DD2A1B"/>
<rect x="36" y="39" width="1" height="1" fill="#DD2A1B"/>
<rect x="37" y="38" width="1" height="1" fill="#DD2A1B"/>
<rect x="36" y="36" width="1" height="1" fill="#DD2A1B"/>
<rect x="35" y="37" width="1" height="1" fill="#DD2A1B"/>
<rect x="36" y="37" width="1" height="1" fill="#DD2A1B"/>
<path d="M54.6481 33.1878C55.5588 33.3628 55.9361 33.559 56.4846 34L56.461 24H55.3074C54.9924 24.3876 54.8203 24.519 54.5068 24.4569C54.1757 24.4597 54.033 24.3493 53.8476 24L53.3767 24.4569L53.8476 24.9137L53.518 25.6244L53 25.4721V26.0305C53.6362 26.2701 53.878 26.6163 54.036 27.7056C53.9492 28.8295 53.7201 29.0379 53.1413 29.0254C53.1407 30.4024 53.254 31.1632 53.9418 32.4772L54.6481 33.1878Z" fill="#E31E24"/>
<path d="M58.3211 24.4569C58.0127 24.5002 57.852 24.4163 57.6147 24H56.461L56.4846 34C57.0261 33.5764 57.425 33.4036 58.274 33.1878C58.5585 32.8847 58.6976 32.73 58.9332 32.4772C59.6449 31.1441 59.7011 30.3843 59.6866 29.0254C59.0732 29.0412 58.8939 28.7149 58.792 27.7056C58.9908 26.7154 59.2047 26.312 59.875 26.0305V25.4721L59.357 25.6244L59.0274 24.9137L59.5925 24.4569L59.0274 24C58.8655 24.3236 58.7327 24.4531 58.3211 24.4569Z" fill="black"/>
<path d="M56.4846 34C57.0261 33.5764 57.425 33.4036 58.274 33.1878C58.5585 32.8847 58.6976 32.73 58.9332 32.4772C59.6449 31.1441 59.7011 30.3843 59.6866 29.0254C59.0732 29.0412 58.8939 28.7149 58.792 27.7056C58.9908 26.7154 59.2047 26.312 59.875 26.0305V25.4721L59.357 25.6244L59.0274 24.9137L59.5925 24.4569L59.0274 24C58.8655 24.3236 58.7327 24.4531 58.3211 24.4569C58.0127 24.5002 57.852 24.4163 57.6147 24H56.461M56.4846 34C55.9361 33.559 55.5588 33.3628 54.6481 33.1878M56.4846 34L56.461 24M54.6481 33.1878C54.3723 32.9103 54.2176 32.7547 53.9418 32.4772M54.6481 33.1878L53.9418 32.4772M53.9418 32.4772C53.254 31.1632 53.1407 30.4024 53.1413 29.0254C53.7201 29.0379 53.9492 28.8295 54.036 27.7056C53.878 26.6163 53.6362 26.2701 53 26.0305V25.4721L53.518 25.6244L53.8476 24.9137L53.3767 24.4569L53.8476 24C54.033 24.3493 54.1757 24.4597 54.5068 24.4569C54.8203 24.519 54.9924 24.3876 55.3074 24H56.461" stroke="white" stroke-width="0.5"/>
</svg>
