<svg width="95" height="81" viewBox="0 0 95 81" fill="none" xmlns="http://www.w3.org/2000/svg">
<path d="M24.8922 3.34539L4 24.2989L19.1526 38.9203L25.6958 32.2428V3.32418L24.8922 3.34539Z" fill="#1D4626"/>
<path d="M90.7831 23.8384L70.1205 3L69.0874 3.01671V32.2428L76.5489 38.9203L90.7831 23.8384Z" fill="#1D4626"/>
<path d="M55.8862 3.23026C48.7414 11.6002 44.8306 11.0414 37.9786 3L25.6958 3.32418V32.2428L24.8922 77.9491H70.924L69.0874 32.2428V3.01671L55.8862 3.23026Z" fill="#1D4626"/>
<path d="M55.8862 3.23026C48.7414 11.6002 44.8306 11.0414 37.9786 3L25.6958 3.32418V32.2428L24.8922 77.9491H70.924L69.0874 32.2428V3.01671L55.8862 3.23026Z" fill="#157852"/>
<path d="M69.0874 32.2428L76.5489 38.9203L90.7831 23.8384L70.1205 3L69.0874 3.01671M69.0874 32.2428L70.924 77.9491H24.8922L25.6958 32.2428M69.0874 32.2428V3.01671M25.6958 32.2428L19.1526 38.9203L4 24.2989L24.8922 3.34539L25.6958 3.32418M25.6958 32.2428V3.32418M25.6958 3.32418L37.9786 3C44.8306 11.0414 48.7414 11.6002 55.8862 3.23026L69.0874 3.01671" stroke="#1D4626" stroke-width="5"/>
<path d="M59.5 28.7341C60.0638 29.0386 60.417 29.0805 61.0923 28.8654C61.6499 28.7284 61.9559 28.5735 62.4077 28.1431C63.0162 27.449 63.3073 27.0168 63.5154 26.1073C63.4133 25.5646 63.6015 25.5857 64 25.7133C63.1486 25.2307 62.956 24.9235 62.9615 24.3342C63.0415 23.6804 63.143 23.355 63.6538 23.0208H59.5V24.3014V25.5819V27.2894V28.7341Z" fill="#D40F23"/>
<path d="M55.2077 21.4447V23.0208H55.7615H57.6308H59.5H63.6538L63.5154 21.4447H55.2077Z" fill="white"/>
<path d="M59.5 20C58.5645 20.5072 57.4863 20.835 55.2077 21.4447H63.5154C61.5193 20.8932 60.4763 20.5822 59.5 20Z" fill="#FEEC00"/>
<path d="M59.5 23.0208H57.6308L59.5 24.3014V23.0208Z" fill="#00963F"/>
<path d="M56.2462 24.3342C56.2297 24.6105 56.1865 24.7625 56.0038 25.0238L59.5 27.2894V25.5819L56.0038 23.6775L56.2462 24.3342Z" fill="#00963F"/>
<path d="M55.9692 26.6983L56.7308 27.7491L57.7692 28.4058L58.7385 28.5371L59.5 28.7341L55.9415 26.567L55.9692 26.6983Z" fill="#00963F"/>
<path d="M55.7615 23.0208L56.0038 23.6775L59.5 25.5819V24.3014L57.6308 23.0208H55.7615Z" fill="white"/>
<path d="M55.7615 25.7133L55.9415 26.567L59.5 28.7341V27.2894L56.0038 25.0238C56.0502 25.162 55.9728 25.3345 55.7615 25.7133Z" fill="white"/>
<path d="M55.2077 21.4447C57.4863 20.835 58.5645 20.5072 59.5 20C60.4763 20.5822 61.5193 20.8932 63.5154 21.4447M55.2077 21.4447V23.0208M55.2077 21.4447H63.5154M55.2077 23.0208C55.7695 23.1166 55.9094 23.426 55.9692 24.3342C55.8221 25.1746 55.5491 25.3991 55 25.7133C55.5677 25.4592 55.6183 25.5324 55.4846 26.1073C55.6668 27.1503 55.9383 27.5471 56.5231 28.1431C56.8869 28.4813 57.1419 28.6403 57.6308 28.8654C58.4234 29.0587 58.8219 28.9883 59.5 28.7341M55.2077 23.0208H55.7615M59.5 28.7341C60.0638 29.0386 60.417 29.0805 61.0923 28.8654C61.6499 28.7284 61.9559 28.5735 62.4077 28.1431C63.0162 27.449 63.3073 27.0168 63.5154 26.1073C63.4133 25.5646 63.6015 25.5857 64 25.7133C63.1486 25.2307 62.956 24.9235 62.9615 24.3342C63.0415 23.6804 63.143 23.355 63.6538 23.0208M59.5 28.7341L58.7385 28.5371L57.7692 28.4058L56.7308 27.7491L55.9692 26.6983L55.9415 26.567M59.5 28.7341L55.9415 26.567M59.5 28.7341V27.2894M63.6538 23.0208L63.5154 21.4447M63.6538 23.0208H59.5M59.5 23.0208H57.6308M59.5 23.0208V24.3014M55.7615 23.0208L56.0038 23.6775M55.7615 23.0208H57.6308M55.9415 26.567L55.7615 25.7133C55.9728 25.3345 56.0502 25.162 56.0038 25.0238M56.0038 25.0238C56.1865 24.7625 56.2297 24.6105 56.2462 24.3342L56.0038 23.6775M56.0038 25.0238L59.5 27.2894M59.5 27.2894V25.5819M59.5 25.5819L56.0038 23.6775M59.5 25.5819V24.3014M57.6308 23.0208L59.5 24.3014" stroke="#FEEC00" stroke-width="0.5"/>
</svg>
