<svg width="95" height="81" viewBox="0 0 95 81" fill="none" xmlns="http://www.w3.org/2000/svg">
<path d="M24.8922 3.34539L4 24.2989L19.1526 38.9203L25.6958 32.2428L24.8922 77.9491H70.924L69.0874 32.2428L76.5489 38.9203L90.7831 23.8384L70.1205 3L55.8862 3.23026C48.7414 11.6002 44.8306 11.0414 37.9786 3L24.8922 3.34539Z" fill="white" stroke="#2D509F" stroke-width="5"/>
<path d="M10 26.5L25 15" stroke="#2D509F"/>
<path d="M67 67V75.5" stroke="#2D509F" stroke-width="5"/>
<path d="M57 14L57.2245 14.691H57.9511L57.3633 15.118L57.5878 15.809L57 15.382L56.4122 15.809L56.6367 15.118L56.0489 14.691H56.7755L57 14Z" fill="#E9B135"/>
<path d="M61 14L61.2245 14.691H61.9511L61.3633 15.118L61.5878 15.809L61 15.382L60.4122 15.809L60.6367 15.118L60.0489 14.691H60.7755L61 14Z" fill="#E9B135"/>
<path d="M55 22L59 16.5L63 22L59 28L55 22Z" fill="#2D509F" stroke="#0072BC" stroke-width="0.5"/>
</svg>
