<svg width="95" height="81" viewBox="0 0 95 81" fill="none" xmlns="http://www.w3.org/2000/svg">
<path d="M24.8922 3.34539L4 24.2989L19.1526 38.9203L25.6958 32.2428C43.134 12.9864 53.3799 12.9633 69.0874 32.2428L76.5489 38.9203L90.7831 23.8384L70.1205 3L55.8862 3.23026C48.7414 11.6002 44.8306 11.0414 37.9786 3L24.8922 3.34539Z" fill="#037BBB"/>
<path d="M70.924 77.9491L69.0874 32.2428C53.3799 12.9633 43.134 12.9864 25.6958 32.2428L24.8922 77.9491H70.924Z" fill="#037BBB"/>
<path d="M70.924 77.9491L69.0874 32.2428C53.3799 12.9633 43.134 12.9864 25.6958 32.2428L24.8922 77.9491H70.924Z" fill="#0D1D41"/>
<path d="M69.0874 32.2428L76.5489 38.9203L90.7831 23.8384L70.1205 3L55.8862 3.23026C48.7414 11.6002 44.8306 11.0414 37.9786 3L24.8922 3.34539L4 24.2989L19.1526 38.9203L25.6958 32.2428M69.0874 32.2428L70.924 77.9491H24.8922L25.6958 32.2428M69.0874 32.2428C53.3799 12.9633 43.134 12.9864 25.6958 32.2428" stroke="#0D1D41" stroke-width="5"/>
<path d="M62.2757 25H55.1848C54.7677 26.7122 53.96 27.1866 53.0575 27.6C52.6779 31.9282 54.1332 34.1894 58.7302 38C62.3973 34.6174 64.5854 32.7825 64.403 27.6C63.2469 27.0535 62.7295 26.5686 62.2757 25Z" fill="black" stroke="white"/>
<path d="M57.0333 28.0723H60.3424C60.3951 30.0606 60.084 31.0086 58.6878 32.3268C58.9713 32.9388 59.2547 33.2529 59.8697 33.745H57.506C57.92 33.4666 58.1978 33.1909 58.6878 32.3268C57.0733 30.9321 56.8419 29.957 57.0333 28.0723Z" fill="#F4CF64"/>
<path d="M58.6878 32.3268C60.084 31.0086 60.3951 30.0606 60.3424 28.0723H57.0333C56.8419 29.957 57.0733 30.9321 58.6878 32.3268ZM58.6878 32.3268C58.1978 33.1909 57.92 33.4666 57.506 33.745H59.8697C59.2547 33.2529 58.9713 32.9388 58.6878 32.3268Z" stroke="#F4CF64"/>
</svg>
