<svg width="95" height="81" viewBox="0 0 95 81" fill="none" xmlns="http://www.w3.org/2000/svg">
<path d="M24.8922 3.34539L4 24.2989L19.1526 38.9203L25.6958 32.2428L24.8922 77.9491H70.924L69.0874 32.2428L76.5489 38.9203L90.7831 23.8384L70.1205 3L55.8862 3.23026C48.7414 11.6002 44.8306 11.0414 37.9786 3L24.8922 3.34539Z" fill="black" stroke="white" stroke-width="5"/>
<path d="M60 17C58.1741 17.6956 57.392 18.6063 57 22.3429C57.6821 20.247 58.3267 19.5622 60 19.4095C61.8023 19.5798 62.3666 20.357 63 22.3429C62.4309 18.7471 61.8176 17.5184 60 17Z" fill="#DD1634"/>
<path d="M60 28C62.0004 27.105 62.7318 25.9934 63 22.3429C62.507 24.4051 61.836 25.0928 60 25.5905C58.4292 25.3006 57.6814 24.8183 57 22.3429C57.5217 26.7024 58.273 27.6287 60 28Z" fill="black"/>
<path d="M60 19.4095C58.3267 19.5622 57.6821 20.247 57 22.3429C57.6814 24.8183 58.4292 25.3006 60 25.5905C61.836 25.0928 62.507 24.4051 63 22.3429C62.3666 20.357 61.8023 19.5798 60 19.4095Z" fill="white"/>
<path d="M57 22.3429C57.392 18.6063 58.1741 17.6956 60 17C61.8176 17.5184 62.4309 18.7471 63 22.3429M57 22.3429C57.5217 26.7024 58.273 27.6287 60 28C62.0004 27.105 62.7318 25.9934 63 22.3429M57 22.3429C57.6821 20.247 58.3267 19.5622 60 19.4095C61.8023 19.5798 62.3666 20.357 63 22.3429M57 22.3429C57.6814 24.8183 58.4292 25.3006 60 25.5905C61.836 25.0928 62.507 24.4051 63 22.3429" stroke="black" stroke-width="0.5"/>
</svg>
