<svg width="95" height="81" viewBox="0 0 95 81" fill="none" xmlns="http://www.w3.org/2000/svg">
<path d="M4 24.2989L24.8922 3.34539L37.9786 3C44.8306 11.0414 48.7414 11.6002 55.8862 3.23026L70.1205 3L90.7831 23.8384L76.5489 38.9203L69.0874 32.2428L70.924 77.9491H24.8922L25.6958 32.2428L19.1526 38.9203L4 24.2989Z" fill="white" stroke="black" stroke-width="5"/>
<path d="M4 24.2989L24.8922 3.34539L37.9786 3M55.8862 3.23026L70.1205 3L90.7831 23.8384" stroke="white" stroke-width="5"/>
<path fill-rule="evenodd" clip-rule="evenodd" d="M56 19.992V23.9839H56.4283H56.8565V22.6291C56.8565 21.3812 56.882 21.2337 57.1787 20.7619C57.3559 20.48 57.5486 20.2495 57.607 20.2495C57.6653 20.2495 57.713 21.0897 57.713 22.1167V23.9839H58.1413H58.5696L58.5704 22.8571L58.5713 21.7304L59.274 22.8547C59.9761 23.9781 59.9772 23.979 60.504 23.9815C60.8944 23.9833 61.007 23.9422 60.9377 23.8229C60.8863 23.7345 60.4386 23.0064 59.9427 22.205C59.0558 20.7717 59.0445 20.7427 59.2434 20.4232C59.3546 20.2446 59.4706 20.1247 59.5011 20.1568C59.5317 20.1888 60.0925 21.0487 60.7473 22.0674L61.938 23.9195L62.4691 23.9598L63 24L61.5801 21.8034C60.7992 20.5954 60.1603 19.5478 60.1603 19.4757C60.1603 19.4036 60.6833 18.6263 61.3227 17.7483C61.962 16.8704 62.4851 16.1178 62.4851 16.076C62.4851 16.0343 62.2942 16 62.0609 16C61.6613 16 61.5502 16.1131 60.1337 17.9638L58.6308 19.9276L58.5934 19.3862C58.5587 18.8824 58.6216 18.7573 59.5007 17.5834C60.0204 16.8896 60.4982 16.2496 60.5626 16.161C60.6517 16.0385 60.5626 16 60.1901 16C59.7393 16 59.6583 16.0578 59.1657 16.731L58.6308 17.4621L58.594 16.731L58.5573 16H58.1352H57.713L57.7112 17.3843L57.7094 18.7686L57.2876 19.2837L56.8657 19.7988L56.8612 17.8994L56.8565 16H56.4283H56V19.992Z" fill="black"/>
</svg>
