<svg width="95" height="81" viewBox="0 0 95 81" fill="none" xmlns="http://www.w3.org/2000/svg">
<path d="M24.8922 3.34539L4 24.2989L19.1526 38.9203L25.6958 32.2428L24.8922 77.9491H70.924L69.0874 32.2428L76.5489 38.9203L90.7831 23.8384L70.1205 3L55.8862 3.23026C48.7414 11.6002 44.8306 11.0414 37.9786 3L24.8922 3.34539Z" fill="#FF0000" stroke="black" stroke-width="5"/>
<path d="M52 21L55.3333 31" stroke="white" stroke-width="0.5"/>
<path d="M60.9766 21L64.3099 31" stroke="white" stroke-width="0.5"/>
<path d="M59.1816 21L62.515 31" stroke="white" stroke-width="0.5"/>
<path d="M57.3867 21L60.7201 31" stroke="white" stroke-width="0.5"/>
<path d="M55.5898 21L58.9232 31" stroke="white" stroke-width="0.5"/>
<path d="M53.7949 21L57.1283 31" stroke="white" stroke-width="0.5"/>
<path d="M66.5 47L56.5 58" stroke="white"/>
<path d="M33 66L28.5 72.5M35 35L31.5 41" stroke="white"/>
<path d="M35 19L28 26" stroke="white"/>
<path d="M58 17.5L53 22.5M39 24.5L42.5 30.5" stroke="white"/>
</svg>
