<svg width="95" height="81" viewBox="0 0 95 81" fill="none" xmlns="http://www.w3.org/2000/svg">
<path d="M70.924 77.9491L69.0874 32.2428C52.3066 8.63743 42.8447 7.2875 25.6958 32.2428L24.8922 77.9491H70.924Z" fill="#591A8C"/>
<path d="M24.8922 3.34539L4 24.2989L19.1526 38.9203L25.6958 32.2428C42.8447 7.2875 52.3066 8.63743 69.0874 32.2428L76.5489 38.9203L90.7831 23.8384L70.1205 3L55.8862 3.23026C48.7414 11.6002 44.8306 11.0414 37.9786 3L24.8922 3.34539Z" fill="#7743A1"/>
<path d="M69.0874 32.2428L76.5489 38.9203L90.7831 23.8384L70.1205 3L55.8862 3.23026C48.7414 11.6002 44.8306 11.0414 37.9786 3L24.8922 3.34539L4 24.2989L19.1526 38.9203L25.6958 32.2428M69.0874 32.2428L70.924 77.9491H24.8922L25.6958 32.2428M69.0874 32.2428C52.3066 8.63743 42.8447 7.2875 25.6958 32.2428" stroke="#591A8C" stroke-width="5"/>
<path d="M4 24.4605L19.1526 39.0819M90.7831 24L76.5489 39.0819" stroke="white" stroke-width="5"/>
<path d="M59.5213 22.0211C57.85 21.916 56.9135 22.2081 55.1887 22.7863C54.886 24.5339 54.894 25.5407 55.6114 27.443C56.6257 29.6012 57.461 30.6143 59.5213 32C61.2303 30.8649 62.143 29.9982 63.5721 27.443C63.9725 25.6449 64.1231 24.6316 63.8891 22.7863C62.3565 22.2827 61.4272 21.9483 59.5213 22.0211Z" fill="white" stroke="#9C82BB" stroke-width="2"/>
</svg>
