<svg width="95" height="81" viewBox="0 0 95 81" fill="none" xmlns="http://www.w3.org/2000/svg">
<path d="M24.8922 3.34539L4 24.2989L19.1526 38.9203L25.6958 32.2428L24.8922 77.9491H70.924L69.0874 32.2428L76.5489 38.9203L90.7831 23.8384L70.1205 3L55.8862 3.23026C48.7414 11.6002 44.8306 11.0414 37.9786 3L24.8922 3.34539Z" fill="#F4FA44" stroke="#F4FA44" stroke-width="5"/>
<path d="M58.3281 24.7078V23.6835H58.581V21.2936H58.3281V20.2693H59.8454L61.112 22.1471L62.2058 20.2693H63.7232V21.2936H63.2174V23.6835H63.7232V24.7078H61.9529V23.6835H62.2058V21.8911L61.112 23.6835L59.8454 21.8911V23.6835H60.1826V24.7078H58.3281Z" fill="#EFC13A"/>
<path fill-rule="evenodd" clip-rule="evenodd" d="M57.2322 19.8425C60.1567 18.6599 61.8363 18.6619 64.9033 19.8425C65.4328 24.0406 65.3262 26.3771 61.112 27.3539C57.2955 26.3236 56.2529 24.633 57.2322 19.8425ZM58.3281 23.6835V24.7078H60.1826V23.6835H59.8454V21.8911L61.112 23.6835L62.2058 21.8911V23.6835H61.9529V24.7078H63.7232V23.6835H63.2174V21.2936H63.7232V20.2693H62.2058L61.112 22.1471L59.8454 20.2693H58.3281V21.2936H58.581V23.6835H58.3281Z" fill="#22446A"/>
<path fill-rule="evenodd" clip-rule="evenodd" d="M56.3913 19.0744C59.9796 17.6748 61.9864 17.6093 65.5798 19.0744C66.713 24.9539 65.6611 27.2993 61.112 30C56.7724 27.2878 55.1844 25.2388 56.3913 19.0744ZM64.9033 19.8425C61.8363 18.6619 60.1567 18.6599 57.2322 19.8425C56.2529 24.633 57.2955 26.3236 61.112 27.3539C65.3262 26.3771 65.4328 24.0406 64.9033 19.8425Z" fill="#EFC13A"/>
</svg>
