<svg width="95" height="81" viewBox="0 0 95 81" fill="none" xmlns="http://www.w3.org/2000/svg">
<path d="M24.8922 3.84539L4 24.7989L19.1526 39.4203L25.6958 32.7428L24.8922 78.4491H70.924L69.0874 32.7428L76.5489 39.4203L90.7831 24.3384L70.1205 3.5L55.8862 3.73026C48.7414 12.1002 44.8306 11.5414 37.9786 3.5L24.8922 3.84539Z" fill="#173752" stroke="#173752" stroke-width="5"/>
<path d="M31.8507 58.9118L25.403 65.5L27.4179 69.2059L30.2388 66.7353L25 73.3235L29.0299 77.8529L39.9104 67.1471L36.6866 71.2647L37.0896 79.5L49.5821 67.1471L48.3731 69.6176L52 69.2059V58.5L42.3284 68.7941L41.9254 58.9118L32.2537 68.7941L31.8507 58.9118Z" fill="#46738C" stroke="#46738C"/>
<path d="M31.8507 58.9118L25.403 65.5L27.4179 69.2059L30.2388 66.7353L25 73.3235L29.0299 77.8529L39.9104 67.1471L36.6866 71.2647L37.0896 79.5L49.5821 67.1471L48.3731 69.6176L52 69.2059V58.5L42.3284 68.7941L41.9254 58.9118L32.2537 68.7941L31.8507 58.9118Z" fill="#46738C" stroke="#46738C"/>
<path d="M55.8507 3.91211L49.403 10.5003L51.4179 14.2062L54.2388 11.7356L49 18.3239L53.0299 22.8533L63.9104 12.1474L60.6866 16.265L61.0896 24.5003L73.5821 12.1474L72.3731 14.618L76 14.2062L75.5 7L66.3284 13.7945L65.9254 3.91211L56.2537 13.7945L55.8507 3.91211Z" fill="#46738C" stroke="#46738C"/>
<path d="M30.5 2L23.403 5.08824L25.4179 8.79412L28.2388 6.32353L23 12.9118L27.0299 17.4412L35.0896 10L34.6866 10.8529L35.0896 19.0882L44.5 12.9118L46 14L46.5 10L46 7.5L40.3284 8.38235L37.9104 2.5L30.2537 8.38235L30.5 2Z" fill="#124155" stroke="#46738C"/>
<path d="M62.8507 36.9121L56.403 43.5003L58.4179 47.2062L61.2388 44.7356L56 51.3239L58.4179 56.5L69.0376 46.0509L67.4256 49.5218L68.0896 57.5003L71.097 36.9121L62.8507 46.7945V36.9121Z" fill="#46738C" stroke="#46738C"/>
<path d="M61.8507 57.9121L55.403 64.5003L57.4179 68.2062L60.2388 65.7356L55 72.3239L59.0299 76.8533L69.9104 66.1474L66.6866 70.265L67.0896 78.5003L72.3284 67.7945L71.9254 57.9121L62.2537 67.7945L61.8507 57.9121Z" fill="#124155" stroke="#46738C"/>
<path d="M21.8507 16.9118L15.403 23.5L17.4179 27.2059L20.2388 24.7353L15 31.3235L19.0299 35.8529L29.9104 25.1471L26.6866 29.2647L27.0896 37.5L39.5821 25.1471L38.3731 27.6176L42 27.2059V16.5L32.3284 26.7941L31.9254 16.9118L22.2537 26.7941L21.8507 16.9118Z" fill="#46738C" stroke="#46738C"/>
<path d="M48.8507 21.9118L42.403 28.5L44.4179 32.2059L47.2388 29.7353L42 36.3235L46.0299 40.8529L56.9104 30.1471L53.6866 34.2647L54.0896 42.5L66.5821 30.1471L65.3731 32.6176L69 32.2059V21.5L59.3284 31.7941L58.9254 21.9118L49.2537 31.7941L48.8507 21.9118Z" fill="#124155" stroke="#46738C"/>
<path d="M32.2537 37L25.403 46.5L27.4179 50.2059L30.2388 47.7353L25 54.3235L29.0299 58.8529L39.9104 48.1471L36.6866 52.2647L37.0896 60.5L49.5821 48.1471L48.3731 50.6176L52 50.2059V39.5L42.3284 49.7941L39.9104 35L35 40L32.2537 49.7941V37Z" fill="#124155" stroke="#46738C"/>
<path d="M55.1487 20.8014C54.9795 22.6037 54.9233 23.628 55.1487 25.5685C56.2344 30.2927 57.2769 32.9179 60.2233 35.261V19.4274C58.9269 20.0083 57.5877 20.408 55.1487 20.8014Z" fill="#98D2EC"/>
<path d="M68.9232 25.5685C69.0375 23.6283 69.0129 22.6032 68.9232 20.8014C66.8642 20.4245 65.5101 20.0538 64.0326 19.4274C63.9407 19.3885 63.8484 19.3486 63.7554 19.3076V35.261C66.4842 33.0765 67.6953 30.5339 68.9232 25.5685Z" fill="#98D2EC"/>
<path d="M62.0763 18.5C61.4002 18.8582 60.8162 19.1618 60.2233 19.4274V35.261C60.7497 35.6795 61.3368 36.0891 61.9957 36.5C62.6461 36.0904 63.229 35.6824 63.7554 35.261V19.3076C63.2293 19.0758 62.6816 18.8104 62.0763 18.5Z" fill="white"/>
<path d="M60.2233 19.4274C60.8162 19.1618 61.4002 18.8582 62.0763 18.5C62.6816 18.8104 63.2293 19.0758 63.7554 19.3076M60.2233 19.4274C58.9269 20.0083 57.5877 20.408 55.1487 20.8014C54.9795 22.6037 54.9233 23.628 55.1487 25.5685C56.2344 30.2927 57.2769 32.9179 60.2233 35.261M60.2233 19.4274V35.261M60.2233 35.261C60.7497 35.6795 61.3368 36.0891 61.9957 36.5C62.6461 36.0904 63.229 35.6824 63.7554 35.261M63.7554 35.261C66.4842 33.0765 67.6953 30.5339 68.9232 25.5685C69.0375 23.6283 69.013 22.6032 68.9232 20.8014C66.8642 20.4245 65.5101 20.0538 64.0326 19.4274C63.9407 19.3885 63.8484 19.3486 63.7554 19.3076M63.7554 35.261V19.3076" stroke="#1E294F" stroke-width="0.5"/>
</svg>
