<svg width="95" height="81" viewBox="0 0 95 81" fill="none" xmlns="http://www.w3.org/2000/svg">
<path d="M24.8922 3.34539L4 24.2989L19.1526 38.9203L25.6958 32.2428L24.8922 77.9491H70.924L69.0874 32.2428L76.5489 38.9203L90.7831 23.8384L70.1205 3L55.8862 3.23026C48.7414 11.6002 44.8306 11.0414 37.9786 3L24.8922 3.34539Z" fill="#195330" stroke="#195330" stroke-width="5"/>
<path d="M34.5108 73.7379C36.4042 74.189 36.5101 75.4765 36.4892 78H26.7204L24 76.7464L26.7204 46.7863L28.4516 49.9202C28.3124 47.4637 28.0206 46.2442 26.9677 44.5299V40.3932L27.3387 38.2621C27.188 37.9783 27.0652 37.7942 26.7204 37.3846C27.1111 36.4958 27.1115 36.1449 26.9677 35.6296H27.7097L28.2043 34L30.3065 35.6296C30.9784 34.8232 31.84 34.7571 33.5215 34.7521C33.7336 34.8567 33.9544 35.106 34.3871 35.6296C34.434 35.3231 34.9271 35.2615 36.2419 35.2536L37.1075 35.6296V37.3846L36.8602 38.8889H36.2419C33.11 38.5097 32.5221 39.7103 33.0269 43.7778L35.871 46.7863V47.7892L37.8495 48.1652C39.2517 43.9253 40.1848 41.9897 42.5484 40.7692H45.6398C46.4544 41.3827 46.6887 41.783 47 42.5242C46.3835 43.2162 45.1412 44.1096 42.5484 45.9088L39.3333 56.5641L37.8495 56.8148L36.4892 59.698V61.3276L41.9301 68.4729H44.0323C45.4612 68.7614 45.4296 69.852 44.7742 72.4843H39.7043L32.4086 64.963C33.6597 68.2811 32.1021 70.3508 28.5753 74.114L29.8118 74.49L31.7903 73.7379" stroke="white"/>
<circle cx="13" cy="17" r="1" fill="white"/>
<circle cx="16.5" cy="13.5" r="1.5" fill="white"/>
<circle cx="25.5" cy="4.5" r="2.5" fill="white"/>
<circle cx="21" cy="9" r="2" fill="white"/>
<circle cx="82" cy="17" r="1" transform="rotate(-90 82 17)" fill="white"/>
<circle cx="78.5" cy="13.5" r="1.5" transform="rotate(-90 78.5 13.5)" fill="white"/>
<circle cx="69.5" cy="4.5" r="2.5" transform="rotate(-90 69.5 4.5)" fill="white"/>
<circle cx="74" cy="9" r="2" transform="rotate(-90 74 9)" fill="white"/>
</svg>
