<svg width="95" height="81" viewBox="0 0 95 81" fill="none" xmlns="http://www.w3.org/2000/svg">
<path d="M24.8922 3.34539L4 24.2989L19.1526 38.9203L25.6958 32.2428L24.8922 77.9491H70.924L69.0874 32.2428L76.5489 38.9203L90.7831 23.8384L70.1205 3L55.8862 3.23026C48.7414 11.6002 44.8306 11.0414 37.9786 3L24.8922 3.34539Z" fill="white" stroke="white" stroke-width="5"/>
<path d="M58.7391 36V39H60.1015H66.913H71V36H58.7391Z" fill="#D2B603"/>
<path d="M58.7391 36V39H60.1015H66.913H71V36H58.7391Z" fill="#3C4F34"/>
<path d="M57.3768 42V39H45.7971V42H57.3768Z" fill="#3C4F34"/>
<path d="M24 36V39H30.8116V36H30.6901H24Z" fill="#8EC450"/>
<path d="M66.913 42V39H60.1015V42H66.913Z" fill="#8EC450"/>
<path fill-rule="evenodd" clip-rule="evenodd" d="M58.7391 36H30.8116V39H45.7971H57.3768V42H60.1015V39H58.7391V36ZM66.913 42V39H71V42H66.913Z" fill="#D2B603"/>
<path d="M30.8116 39H24V42H36.2609H45.7971V39H30.8116Z" fill="#8EC450"/>
<path d="M56.3643 16.6286C55.868 19.4392 55.9494 20.518 56.192 22.2857C57.0133 24.26 57.4553 24.786 58.2284 25.7058L58.2595 25.7429V16.1571C57.1823 16.2795 56.7144 16.3735 56.3643 16.6286Z" fill="black"/>
<path d="M58.9487 16V26.3714L59.9825 27L61.0162 26.3714V16H58.9487Z" fill="#FFC934"/>
<path d="M61.7054 16.1571V25.7429C62.5997 24.6349 63.091 23.9903 63.7729 22.2857C64.0779 19.9348 64.0734 18.7052 63.7729 16.6286L61.7054 16.1571Z" fill="#00AC5E"/>
</svg>
