<svg width="95" height="81" viewBox="0 0 95 81" fill="none" xmlns="http://www.w3.org/2000/svg">
<path d="M24.8922 3.34539L4 24.2989L19.1526 38.9203L25.6958 28.5C42.4623 13.2499 51.9594 12.9969 69.0874 28.5L76.5489 38.9203L90.7831 23.8384L70.1205 3L55.8862 3.23026C48.7414 11.6002 44.8306 11.0414 37.9786 3L24.8922 3.34539Z" fill="#B7E738"/>
<path d="M70.924 77.9491L69.0874 28.5C51.9594 12.9969 42.4623 13.2499 25.6958 28.5L24.8922 77.9491H70.924Z" fill="#B7E738"/>
<path d="M70.924 77.9491L69.0874 28.5C51.9594 12.9969 42.4623 13.2499 25.6958 28.5L24.8922 77.9491H70.924Z" fill="black"/>
<path d="M69.0874 28.5L76.5489 38.9203L90.7831 23.8384L70.1205 3L55.8862 3.23026C48.7414 11.6002 44.8306 11.0414 37.9786 3L24.8922 3.34539L4 24.2989L19.1526 38.9203L25.6958 28.5M69.0874 28.5L70.924 77.9491H24.8922L25.6958 28.5M69.0874 28.5C51.9594 12.9969 42.4623 13.2499 25.6958 28.5" stroke="black" stroke-width="5"/>
<path d="M55 23.057V32.3962C55.3967 33.725 55.8512 34.2253 56.7386 35.0177V23.8763C56.2606 23.1278 55.9151 22.8739 55 23.057Z" fill="#38A962"/>
<path d="M62.4286 23.057V32.8877L60.848 35.0177V23.8763C61.159 23.0217 61.5472 22.9231 62.4286 23.057Z" fill="#38A962"/>
<path d="M59.5836 23.057C58.7206 22.9435 58.3105 23.0483 57.845 23.8763V35.5092L58.7933 36L59.5836 35.5085V23.057Z" fill="#FFED00"/>
</svg>
