<svg width="95" height="81" viewBox="0 0 95 81" fill="none" xmlns="http://www.w3.org/2000/svg">
<path fill-rule="evenodd" clip-rule="evenodd" d="M24.8922 3.34539L4 24.2989L19.1526 38.9203L25.6958 32.2428L24.8922 77.9491L37.9786 59.5L55.8862 54.5L69.5799 44.5L69.0874 32.2428L76.5489 38.9203L90.7831 23.8384L70.1205 3L55.8862 3.23026C48.7414 11.6002 44.8306 11.0414 37.9786 3L24.8922 3.34539Z" fill="#F0DB25"/>
<path d="M24.8922 77.9491H70.924L69.5799 44.5L55.8862 54.5L37.9786 59.5L24.8922 77.9491Z" fill="#F0DB25"/>
<path d="M24.8922 77.9491H70.924L69.5799 44.5L55.8862 54.5L37.9786 59.5L24.8922 77.9491Z" fill="black"/>
<path d="M24.8922 77.9491H70.924L69.5799 44.5M24.8922 77.9491L25.6958 32.2428L19.1526 38.9203L4 24.2989L24.8922 3.34539L37.9786 3C44.8306 11.0414 48.7414 11.6002 55.8862 3.23026L70.1205 3L90.7831 23.8384L76.5489 38.9203L69.0874 32.2428L69.5799 44.5M24.8922 77.9491L37.9786 59.5L55.8862 54.5L69.5799 44.5" stroke="black" stroke-width="5"/>
<path d="M59.4431 24.0638L61.5269 18L65 19.5957V21.5106L63.7844 24.7021V25.6596L62.3952 26.4574L61.006 28.5319L58.7485 31.4043L57.3593 33.3191L55.7964 36.5106L53.018 39.8617V39.0638L49.1976 46.2447L48.1557 49.5957L44.6826 53.4255L36 63L43.4671 51.8298L44.6826 48.4787L50.2395 39.0638L48.1557 40.5L58.2275 23.5851L59.4431 24.0638Z" fill="url(#paint0_linear_827_952)"/>
<path d="M59.4431 24.0638L61.5269 18L65 19.5957V21.5106L63.7844 24.7021V25.6596L62.3952 26.4574L61.006 28.5319L58.7485 31.4043L57.3593 33.3191L55.7964 36.5106L53.018 39.8617V39.0638L49.1976 46.2447L48.1557 49.5957L44.6826 53.4255L36 63L43.4671 51.8298L44.6826 48.4787L50.2395 39.0638L48.1557 40.5L58.2275 23.5851L59.4431 24.0638Z" fill="url(#paint1_linear_827_952)"/>
<path d="M59.4431 24.0638L61.5269 18L65 19.5957V21.5106L63.7844 24.7021V25.6596L62.3952 26.4574L61.006 28.5319L58.7485 31.4043L57.3593 33.3191L55.7964 36.5106L53.018 39.8617V39.0638L49.1976 46.2447L48.1557 49.5957L44.6826 53.4255L36 63L43.4671 51.8298L44.6826 48.4787L50.2395 39.0638L48.1557 40.5L58.2275 23.5851L59.4431 24.0638Z" fill="url(#paint2_linear_827_952)"/>
<path d="M59.4431 24.0638L61.5269 18L65 19.5957V21.5106L63.7844 24.7021V25.6596L62.3952 26.4574L61.006 28.5319L58.7485 31.4043L57.3593 33.3191L55.7964 36.5106L53.018 39.8617V39.0638L49.1976 46.2447L48.1557 49.5957L44.6826 53.4255L36 63L43.4671 51.8298L44.6826 48.4787L50.2395 39.0638L48.1557 40.5L58.2275 23.5851L59.4431 24.0638Z" stroke="black"/>
<path d="M57.2515 10.6028L59.4072 4L63 5.73759V7.8227L61.7425 11.2979V12.3404L60.3054 13.2092L58.8683 15.4681L56.5329 18.5957L55.0958 20.6809L53.479 24.156L50.6048 27.805V26.9362L46.6527 34.7553L45.5749 38.4043L41.982 42.5745L33 53L40.7246 40.8369L41.982 37.1879L47.7305 26.9362L45.5749 28.5L55.994 10.0816L57.2515 10.6028Z" fill="url(#paint3_linear_827_952)"/>
<path d="M57.2515 10.6028L59.4072 4L63 5.73759V7.8227L61.7425 11.2979V12.3404L60.3054 13.2092L58.8683 15.4681L56.5329 18.5957L55.0958 20.6809L53.479 24.156L50.6048 27.805V26.9362L46.6527 34.7553L45.5749 38.4043L41.982 42.5745L33 53L40.7246 40.8369L41.982 37.1879L47.7305 26.9362L45.5749 28.5L55.994 10.0816L57.2515 10.6028Z" fill="url(#paint4_linear_827_952)"/>
<path d="M57.2515 10.6028L59.4072 4L63 5.73759V7.8227L61.7425 11.2979V12.3404L60.3054 13.2092L58.8683 15.4681L56.5329 18.5957L55.0958 20.6809L53.479 24.156L50.6048 27.805V26.9362L46.6527 34.7553L45.5749 38.4043L41.982 42.5745L33 53L40.7246 40.8369L41.982 37.1879L47.7305 26.9362L45.5749 28.5L55.994 10.0816L57.2515 10.6028Z" fill="url(#paint5_linear_827_952)"/>
<path d="M57.2515 10.6028L59.4072 4L63 5.73759V7.8227L61.7425 11.2979V12.3404L60.3054 13.2092L58.8683 15.4681L56.5329 18.5957L55.0958 20.6809L53.479 24.156L50.6048 27.805V26.9362L46.6527 34.7553L45.5749 38.4043L41.982 42.5745L33 53L40.7246 40.8369L41.982 37.1879L47.7305 26.9362L45.5749 28.5L55.994 10.0816L57.2515 10.6028Z" stroke="black"/>
<path d="M65.7844 33.9858L67.3653 29L70 30.3121V31.8865L69.0778 34.5106V35.2979L68.024 35.9539L66.9701 37.6596L65.2575 40.0213L64.2036 41.5957L63.018 44.2199L60.9102 46.9752V46.3191L58.012 52.2234L57.2216 54.9787L54.5868 58.1277L48 66L53.6647 56.8156L54.5868 54.0603L58.8024 46.3191L57.2216 47.5L64.8623 33.5922L65.7844 33.9858Z" fill="url(#paint6_linear_827_952)"/>
<path d="M65.7844 33.9858L67.3653 29L70 30.3121V31.8865L69.0778 34.5106V35.2979L68.024 35.9539L66.9701 37.6596L65.2575 40.0213L64.2036 41.5957L63.018 44.2199L60.9102 46.9752V46.3191L58.012 52.2234L57.2216 54.9787L54.5868 58.1277L48 66L53.6647 56.8156L54.5868 54.0603L58.8024 46.3191L57.2216 47.5L64.8623 33.5922L65.7844 33.9858Z" fill="url(#paint7_linear_827_952)"/>
<path d="M65.7844 33.9858L67.3653 29L70 30.3121V31.8865L69.0778 34.5106V35.2979L68.024 35.9539L66.9701 37.6596L65.2575 40.0213L64.2036 41.5957L63.018 44.2199L60.9102 46.9752V46.3191L58.012 52.2234L57.2216 54.9787L54.5868 58.1277L48 66L53.6647 56.8156L54.5868 54.0603L58.8024 46.3191L57.2216 47.5L64.8623 33.5922L65.7844 33.9858Z" fill="url(#paint8_linear_827_952)"/>
<path d="M65.7844 33.9858L67.3653 29L70 30.3121V31.8865L69.0778 34.5106V35.2979L68.024 35.9539L66.9701 37.6596L65.2575 40.0213L64.2036 41.5957L63.018 44.2199L60.9102 46.9752V46.3191L58.012 52.2234L57.2216 54.9787L54.5868 58.1277L48 66L53.6647 56.8156L54.5868 54.0603L58.8024 46.3191L57.2216 47.5L64.8623 33.5922L65.7844 33.9858Z" stroke="black"/>
<path d="M64.2435 68L65.0959 66.4571C64.5885 69.0043 64.6067 70.8013 64.7915 73.8286C64.4363 73.3402 64.2433 72.9638 64 72.1143L64.2435 68Z" fill="#FFE500"/>
<path d="M65.5221 67.4286C65.7642 66.8488 65.9099 66.5648 66.1919 66.1143C65.9141 69.5082 65.9901 71.4839 66.1919 75.0286L66.1794 75.013C65.7855 74.5193 65.5592 74.2358 65.2786 72.8571C65.2353 70.5942 65.2325 69.3459 65.5221 67.4286Z" fill="#FFE500"/>
<path d="M66.679 67.4286L66.9834 66L67.3487 67.4286V74.6857L66.9834 76L66.679 74.6857V67.4286Z" fill="#FFE500"/>
<path d="M67.8967 74.9143C68.179 71.4782 68.0924 69.5513 67.7749 66.1143C68.143 66.3931 68.3374 66.764 68.6882 67.7143V73.3714C68.458 74.0383 68.28 74.3711 67.8967 74.9143Z" fill="#FFE500"/>
<path d="M69.2362 67.7143L68.9317 66.4571C69.213 66.8033 69.4042 67.0953 69.845 68C69.9685 69.6906 70.0485 70.6345 69.9668 72.4C69.6205 73.2376 69.4831 73.4435 69.2362 73.8286L69.3579 72.5714C69.3788 70.4956 69.3718 69.3855 69.2362 67.7143Z" fill="#FFE500"/>
<defs>
<linearGradient id="paint0_linear_827_952" x1="50.5" y1="18" x2="50.5" y2="63" gradientUnits="userSpaceOnUse">
<stop offset="0.0484446" stop-opacity="0"/>
<stop offset="0.899754"/>
</linearGradient>
<linearGradient id="paint1_linear_827_952" x1="50.5" y1="18" x2="50.5" y2="63" gradientUnits="userSpaceOnUse">
<stop offset="0.0484446" stop-opacity="0"/>
<stop offset="0.899754"/>
</linearGradient>
<linearGradient id="paint2_linear_827_952" x1="50.5" y1="18" x2="50.5" y2="63" gradientUnits="userSpaceOnUse">
<stop offset="0.0484446" stop-opacity="0"/>
<stop offset="0.899754"/>
</linearGradient>
<linearGradient id="paint3_linear_827_952" x1="48" y1="4" x2="48" y2="53" gradientUnits="userSpaceOnUse">
<stop offset="0.0484446" stop-opacity="0"/>
<stop offset="0.899754"/>
</linearGradient>
<linearGradient id="paint4_linear_827_952" x1="48" y1="4" x2="48" y2="53" gradientUnits="userSpaceOnUse">
<stop offset="0.0484446" stop-opacity="0"/>
<stop offset="0.899754"/>
</linearGradient>
<linearGradient id="paint5_linear_827_952" x1="48" y1="4" x2="48" y2="53" gradientUnits="userSpaceOnUse">
<stop stop-opacity="0"/>
<stop offset="0.899754"/>
</linearGradient>
<linearGradient id="paint6_linear_827_952" x1="59" y1="29" x2="59" y2="66" gradientUnits="userSpaceOnUse">
<stop offset="0.0484446" stop-opacity="0"/>
<stop offset="0.899754"/>
</linearGradient>
<linearGradient id="paint7_linear_827_952" x1="59" y1="29" x2="59" y2="66" gradientUnits="userSpaceOnUse">
<stop offset="0.0484446" stop-opacity="0"/>
<stop offset="0.899754"/>
</linearGradient>
<linearGradient id="paint8_linear_827_952" x1="59" y1="29" x2="59" y2="66" gradientUnits="userSpaceOnUse">
<stop offset="0.0484446" stop-opacity="0"/>
<stop offset="0.899754"/>
</linearGradient>
</defs>
</svg>
