<svg width="95" height="81" viewBox="0 0 95 81" fill="none" xmlns="http://www.w3.org/2000/svg">
<path d="M24.8922 3.34539L4 24.2989L19.1526 38.9203L25.6958 32.2428L24.8922 77.9491H70.924L69.0874 32.2428L76.5489 38.9203L90.7831 23.8384L70.1205 3L55.8862 3.23026C48.7414 11.6002 44.8306 11.0414 37.9786 3L24.8922 3.34539Z" fill="#F5F5F5" stroke="#191D63" stroke-width="5"/>
<path d="M63.9544 18.6751L62.5358 17C61.5875 17.1896 61.0488 17.2746 60.0532 17.2538L60.2052 27C63.2163 25.3901 64.3209 24.3997 64.2584 22.3299L63.8531 20.0457L63.9544 18.6751Z" fill="#104EA0"/>
<path d="M56 22.3299C56.0482 24.4827 57.0404 25.4879 60.2052 27L60.0532 17.2538C58.9404 17.2407 58.4432 17.173 57.6719 17L56.304 18.6751C56.4461 20.1649 56.3358 20.9547 56 22.3299Z" fill="white"/>
<path d="M60.2052 27C63.2163 25.3901 64.3209 24.3997 64.2584 22.3299L63.8531 20.0457L63.9544 18.6751L62.5358 17C61.5875 17.1896 61.0488 17.2746 60.0532 17.2538M60.2052 27C57.0404 25.4879 56.0482 24.4827 56 22.3299C56.3358 20.9547 56.4461 20.1649 56.304 18.6751L57.6719 17C58.4432 17.173 58.9404 17.2407 60.0532 17.2538M60.2052 27L60.0532 17.2538" stroke="#104EA0"/>
<path d="M59.6592 18.7387H59.8638V17.9851L59.0453 17.8691C58.5398 17.9584 58.3904 18.0828 58.1758 18.3329C58.611 18.1334 58.7965 18.1021 59.0453 18.159C59.48 18.2258 59.6105 18.3307 59.7615 18.5648L59.6592 18.7387Z" fill="#104EA0"/>
<path d="M59.8638 17.9851V18.7387H60.1195L60.0172 18.5648C60.1387 18.3943 60.2299 18.3215 60.4264 18.217C60.6303 18.1137 60.7376 18.0922 60.9379 18.159C61.1851 18.113 61.3462 18.171 61.654 18.3329C61.4767 18.0741 61.368 17.9359 60.9379 17.8691H60.4264L59.8638 17.9851Z" fill="white"/>
</svg>
