<svg width="95" height="81" viewBox="0 0 95 81" fill="none" xmlns="http://www.w3.org/2000/svg">
<path d="M24.8922 3.34539L4 24.2989L19.1526 38.9203L25.6958 32.2428L24.8922 77.9491H70.924L69.0874 32.2428L76.5489 38.9203L90.7831 23.8384L70.1205 3L55.8862 3.23026C48.7414 11.6002 44.8306 11.0414 37.9786 3L24.8922 3.34539Z" fill="#EE7103" stroke="black" stroke-width="5"/>
<rect x="34" y="20" width="8" height="45" fill="black"/>
<rect x="52" y="20" width="8" height="45" fill="black"/>
<path fill-rule="evenodd" clip-rule="evenodd" d="M56.069 24C55.0445 24.5199 54.4594 25.0082 53.6288 26.1875C52.6875 29.071 52.9236 30.01 53.5494 31.3438C54.3275 32.9543 54.9207 33.4201 56.069 34C57.3383 33.3684 57.8588 32.7517 58.5886 31.3438C59.1943 29.2111 59.1196 28.077 58.4404 26.1875C57.7107 25.0677 57.2056 24.5694 56.069 24ZM54.4369 26.1875C54.914 25.5469 55.2441 25.2836 56.069 25.0938C56.7781 25.275 57.1546 25.4871 57.6976 26.1875C58.3407 27.1684 58.5659 27.7925 58.7351 29L58.4387 30.5625C57.9265 31.6772 57.4739 32.2224 56.0673 32.9062C54.8173 32.1861 54.3441 31.6556 53.6958 30.5625L53.3994 29C53.6161 27.8819 53.819 27.2614 54.4369 26.1875Z" fill="#010101"/>
<path d="M56.069 25.0938C55.2441 25.2836 54.914 25.5469 54.4369 26.1875C53.819 27.2614 53.6161 27.8819 53.3994 29C55.4824 29.6476 56.6506 29.5947 58.7351 29C58.5659 27.7925 58.3407 27.1684 57.6976 26.1875C57.1546 25.4871 56.7781 25.275 56.069 25.0938Z" fill="#F27022"/>
<path d="M58.4387 30.5625C56.566 31.0929 55.4839 31.0982 53.6958 30.5625C54.3441 31.6556 54.8173 32.1861 56.0673 32.9062C57.4739 32.2224 57.9265 31.6772 58.4387 30.5625Z" fill="#010101"/>
<path d="M58.7351 29C56.6506 29.5947 55.4824 29.6476 53.3994 29L53.6958 30.5625C55.4839 31.0982 56.566 31.0929 58.4387 30.5625L58.7351 29Z" fill="white"/>
<path d="M53.3994 29C53.6161 27.8819 53.819 27.2614 54.4369 26.1875C54.914 25.5469 55.2441 25.2836 56.069 25.0938C56.7781 25.275 57.1546 25.4871 57.6976 26.1875C58.3407 27.1684 58.5659 27.7925 58.7351 29M53.3994 29C55.4824 29.6476 56.6506 29.5947 58.7351 29M53.3994 29L53.6958 30.5625M58.7351 29L58.4387 30.5625M53.6958 30.5625C55.4839 31.0982 56.566 31.0929 58.4387 30.5625M53.6958 30.5625C54.3441 31.6556 54.8173 32.1861 56.0673 32.9062C57.4739 32.2224 57.9265 31.6772 58.4387 30.5625M56.069 24C55.0445 24.5199 54.4594 25.0082 53.6288 26.1875C52.6875 29.071 52.9236 30.01 53.5494 31.3438C54.3275 32.9543 54.9207 33.4201 56.069 34C57.3383 33.3683 57.8588 32.7517 58.5886 31.3438C59.1943 29.2111 59.1196 28.077 58.4404 26.1875C57.7107 25.0677 57.2056 24.5694 56.069 24Z" stroke="white" stroke-width="0.4"/>
</svg>
