<svg width="28" height="28" viewBox="0 0 28 28" fill="none" xmlns="http://www.w3.org/2000/svg">
<circle cx="14" cy="14" r="13" fill="#00296B" stroke="#00296B" stroke-width="2"/>
<path d="M7.39953 13.96C7.39953 12.52 7.6862 11.2533 8.25953 10.16C8.8462 9.05333 9.63953 8.2 10.6395 7.6C11.6395 7 12.7462 6.7 13.9595 6.7C14.5062 6.7 14.9462 6.76 15.2795 6.88C15.6129 6.98667 15.9262 7.13333 16.2195 7.32C16.2729 7.36 16.3262 7.39333 16.3795 7.42C16.4329 7.43333 16.4862 7.45333 16.5395 7.48L15.9795 6.28L16.0795 6.16H18.6995L20.1395 12.08L18.2595 12.72C17.9262 11.9867 17.5595 11.36 17.1595 10.84C16.7595 10.32 16.3062 9.92 15.7995 9.64C15.2929 9.34667 14.7262 9.2 14.0995 9.2C13.4195 9.2 12.8129 9.4 12.2795 9.8C11.7462 10.2 11.3329 10.76 11.0395 11.48C10.7462 12.2 10.5995 13.02 10.5995 13.94C10.5995 14.9 10.7529 15.7467 11.0595 16.48C11.3662 17.2133 11.8062 17.7867 12.3795 18.2C12.9529 18.6 13.6129 18.8 14.3595 18.8C15.0929 18.8 15.7595 18.6067 16.3595 18.22C16.9595 17.82 17.4662 17.32 17.8795 16.72C18.2929 16.12 18.6395 15.48 18.9195 14.8L20.9195 15.44L19.2395 21.84H16.7195L16.6195 21.72L17.2395 20.4C17.1862 20.4267 17.1262 20.4533 17.0595 20.48C16.9929 20.5067 16.9262 20.54 16.8595 20.58C16.6195 20.7133 16.3862 20.8333 16.1595 20.94C15.9329 21.0333 15.6462 21.1133 15.2995 21.18C14.9662 21.26 14.5929 21.3 14.1795 21.3C12.8862 21.3 11.7262 20.9933 10.6995 20.38C9.67286 19.7533 8.8662 18.8867 8.27953 17.78C7.69286 16.66 7.39953 15.3867 7.39953 13.96Z" fill="#FFD500"/>
</svg>
