<svg width="39" height="55" viewBox="0 0 39 55" fill="none" xmlns="http://www.w3.org/2000/svg">
<path d="M1.21436 50.6542C1.15475 50.6542 1.09621 50.656 1.0386 50.6594C0.980838 50.663 0.93093 50.6667 0.889031 50.6701V51.7314H1.14612C1.42955 51.7314 1.6429 51.6924 1.78646 51.6145C1.92987 51.5368 2.00166 51.3917 2.00166 51.1795C2.00166 51.0769 1.98317 50.992 1.94636 50.9248C1.90969 50.8575 1.85717 50.8036 1.78893 50.7629C1.72069 50.7223 1.63766 50.6939 1.53969 50.6781C1.44172 50.662 1.33328 50.6542 1.21436 50.6542ZM1.16183 49.9484C1.70421 49.9484 2.12042 50.0448 2.41078 50.2375C2.7013 50.4305 2.84641 50.7462 2.84641 51.1849C2.84641 51.6269 2.69961 51.9461 2.4057 52.1425C2.11164 52.3389 1.69188 52.4369 1.14612 52.4369H0.889031V53.668H0.0703125V50.0439C0.24869 50.0086 0.437696 49.9838 0.637023 49.9696C0.836504 49.9556 1.01134 49.9484 1.16183 49.9484Z" fill="#00296B"/>
<path d="M5.00347 51.5776C4.93353 51.5599 4.85128 51.5414 4.75685 51.5218C4.66242 51.5024 4.56076 51.4926 4.45247 51.4926C4.40348 51.4926 4.34495 51.4972 4.27656 51.506C4.20847 51.5147 4.15687 51.5244 4.12175 51.5351V53.6682H3.33984V51.0257C3.47987 50.9762 3.64515 50.9294 3.83585 50.885C4.0264 50.8408 4.23912 50.8188 4.47357 50.8188C4.51547 50.8188 4.56615 50.8214 4.62561 50.8268C4.68507 50.832 4.74453 50.8391 4.80414 50.8481C4.8636 50.8568 4.92306 50.8675 4.98252 50.8799C5.04198 50.8923 5.09266 50.9072 5.13471 50.9249L5.00347 51.5776Z" fill="#00296B"/>
<path d="M7.14926 51.9915C7.14572 51.9243 7.13432 51.8588 7.11522 51.7951C7.09581 51.7314 7.06608 51.6749 7.02588 51.6253C6.98583 51.5757 6.93499 51.535 6.87369 51.5032C6.81253 51.4714 6.73644 51.4556 6.6454 51.4556C6.55806 51.4556 6.48274 51.4705 6.41973 51.5007C6.35689 51.5307 6.30436 51.5705 6.26246 51.6199C6.22041 51.6695 6.18806 51.7271 6.16526 51.7924C6.14246 51.8579 6.12583 51.9243 6.11535 51.9915H7.14926ZM5.3125 52.2938C5.3125 52.0463 5.35009 51.8296 5.42526 51.644C5.50058 51.4582 5.59932 51.3035 5.72178 51.1797C5.84424 51.0558 5.98504 50.962 6.14431 50.8984C6.30343 50.8346 6.46702 50.8029 6.63493 50.8029C7.0268 50.8029 7.33642 50.924 7.56394 51.1663C7.7913 51.4086 7.90498 51.765 7.90498 52.2355C7.90498 52.2815 7.90313 52.3319 7.8999 52.3867C7.8962 52.4416 7.89266 52.4902 7.88927 52.5328H6.11535C6.13291 52.6954 6.20808 52.8244 6.34102 52.92C6.47411 53.0155 6.65249 53.0633 6.87646 53.0633C7.01987 53.0633 7.16066 53.05 7.29884 53.0234C7.43716 52.997 7.54992 52.9642 7.63741 52.9254L7.74231 53.5673C7.70026 53.5885 7.64435 53.6096 7.57441 53.6309C7.50432 53.6522 7.42653 53.6706 7.34089 53.6867C7.25509 53.7025 7.16328 53.7159 7.06531 53.7266C6.96734 53.737 6.86937 53.7424 6.77141 53.7424C6.52294 53.7424 6.30698 53.7053 6.12321 53.6309C5.93959 53.5567 5.7874 53.455 5.66679 53.3259C5.54602 53.1968 5.45683 53.0439 5.39907 52.8669C5.34131 52.69 5.3125 52.499 5.3125 52.2938Z" fill="#00296B"/>
<path d="M9.96589 52.1877C9.96589 51.9331 9.93354 51.7526 9.86869 51.6464C9.80399 51.5405 9.69293 51.4873 9.5355 51.4873C9.48652 51.4873 9.43584 51.4899 9.38331 51.4953C9.33094 51.5006 9.28011 51.5069 9.23112 51.5138V53.6682H8.44922V50.9727C8.51561 50.955 8.59355 50.9365 8.68274 50.9169C8.77193 50.8975 8.86651 50.8799 8.96602 50.8639C9.06584 50.8481 9.16812 50.8356 9.27317 50.8268C9.37823 50.818 9.48128 50.8136 9.58279 50.8136C9.78212 50.8136 9.94401 50.8391 10.0682 50.8904C10.1923 50.9419 10.2946 51.0029 10.3753 51.0736C10.4872 50.9922 10.6156 50.9285 10.761 50.8824C10.9061 50.8365 11.04 50.8136 11.1625 50.8136C11.3829 50.8136 11.5639 50.8445 11.7056 50.9063C11.8473 50.9682 11.9602 51.0559 12.0442 51.1691C12.1281 51.2823 12.1859 51.4168 12.2173 51.5724C12.2487 51.7279 12.2645 51.9012 12.2645 52.0922V53.6682H11.4826V52.1877C11.4826 51.9331 11.4502 51.7526 11.3854 51.6464C11.3207 51.5405 11.2096 51.4873 11.0522 51.4873C11.0103 51.4873 10.9516 51.498 10.8764 51.5192C10.8012 51.5405 10.7392 51.567 10.6902 51.5989C10.7145 51.6802 10.7304 51.766 10.7373 51.8561C10.7442 51.9462 10.7478 52.0428 10.7478 52.1452V53.6682H9.96589V52.1877Z" fill="#00296B"/>
<path d="M13.7005 53.668H12.9186V50.8769H13.7005V53.668ZM13.7739 50.0704C13.7739 50.2155 13.7276 50.3296 13.635 50.4127C13.5423 50.4958 13.4329 50.5374 13.3069 50.5374C13.1809 50.5374 13.0715 50.4958 12.9789 50.4127C12.8862 50.3296 12.8398 50.2155 12.8398 50.0704C12.8398 49.9254 12.8862 49.8113 12.9789 49.7281C13.0715 49.6451 13.1809 49.6035 13.3069 49.6035C13.4329 49.6035 13.5423 49.6451 13.635 49.7281C13.7276 49.8113 13.7739 49.9254 13.7739 50.0704Z" fill="#00296B"/>
<path d="M16.0829 51.9915C16.0793 51.9243 16.0679 51.8588 16.0488 51.7951C16.0294 51.7314 15.9997 51.6749 15.9595 51.6253C15.9194 51.5757 15.8686 51.535 15.8073 51.5032C15.7461 51.4714 15.67 51.4556 15.579 51.4556C15.4917 51.4556 15.4163 51.4705 15.3533 51.5007C15.2905 51.5307 15.238 51.5705 15.1961 51.6199C15.154 51.6695 15.1217 51.7271 15.0989 51.7924C15.0761 51.8579 15.0594 51.9243 15.0489 51.9915H16.0829ZM14.2461 52.2938C14.2461 52.0463 14.2837 51.8296 14.3589 51.644C14.4342 51.4582 14.5329 51.3035 14.6554 51.1797C14.7778 51.0558 14.9186 50.962 15.0779 50.8984C15.237 50.8346 15.4006 50.8029 15.5685 50.8029C15.9604 50.8029 16.27 50.924 16.4975 51.1663C16.7249 51.4086 16.8386 51.765 16.8386 52.2355C16.8386 52.2815 16.8367 52.3319 16.8335 52.3867C16.8298 52.4416 16.8263 52.4902 16.8229 52.5328H15.0489C15.0665 52.6954 15.1417 52.8244 15.2746 52.92C15.4077 53.0155 15.5861 53.0633 15.8101 53.0633C15.9535 53.0633 16.0943 53.05 16.2324 53.0234C16.3708 52.997 16.4835 52.9642 16.571 52.9254L16.6759 53.5673C16.6339 53.5885 16.5779 53.6096 16.508 53.6309C16.4379 53.6522 16.3601 53.6706 16.2745 53.6867C16.1887 53.7025 16.0969 53.7159 15.9989 53.7266C15.9009 53.737 15.803 53.7424 15.705 53.7424C15.4565 53.7424 15.2406 53.7053 15.0568 53.6309C14.8732 53.5567 14.721 53.455 14.6004 53.3259C14.4796 53.1968 14.3904 53.0439 14.3327 52.8669C14.2749 52.69 14.2461 52.499 14.2461 52.2938Z" fill="#00296B"/>
<path d="M19.0503 51.5776C18.9804 51.5599 18.8982 51.5414 18.8037 51.5218C18.7093 51.5024 18.6076 51.4926 18.4993 51.4926C18.4504 51.4926 18.3918 51.4972 18.3234 51.506C18.2553 51.5147 18.2036 51.5244 18.1686 51.5351V53.6682H17.3867V51.0257C17.5267 50.9762 17.692 50.9294 17.8827 50.885C18.0733 50.8408 18.2858 50.8188 18.5204 50.8188C18.5623 50.8188 18.613 50.8214 18.6725 50.8268C18.7319 50.832 18.7914 50.8391 18.851 50.8481C18.9105 50.8568 18.9699 50.8675 19.0294 50.8799C19.0889 50.8923 19.1395 50.9072 19.1816 50.9249L19.0503 51.5776Z" fill="#00296B"/>
<path d="M23.297 52.9569V53.668H20.8672V49.9909H21.6859V52.9569H23.297Z" fill="#00296B"/>
<path d="M25.4186 51.9912C25.4153 51.9241 25.4039 51.8586 25.3848 51.7948C25.3653 51.7312 25.3355 51.6747 25.2953 51.6251C25.2552 51.5755 25.2044 51.5348 25.1432 51.5029C25.0821 51.4712 25.006 51.4553 24.9149 51.4553C24.8274 51.4553 24.7523 51.4703 24.6893 51.5005C24.6264 51.5305 24.5737 51.5702 24.5318 51.6197C24.4898 51.6693 24.4574 51.7269 24.4346 51.7922C24.4118 51.8577 24.3952 51.9241 24.3849 51.9912H25.4186ZM23.582 52.2936C23.582 52.0461 23.6196 51.8293 23.6946 51.6437C23.7701 51.4579 23.8689 51.3033 23.9913 51.1794C24.1136 51.0556 24.2546 50.9618 24.4137 50.8982C24.573 50.8344 24.7366 50.8027 24.9043 50.8027C25.2963 50.8027 25.606 50.9237 25.8335 51.166C26.0607 51.4083 26.1744 51.7648 26.1744 52.2352C26.1744 52.2813 26.1727 52.3317 26.1693 52.3865C26.1656 52.4413 26.1622 52.49 26.1588 52.5325H24.3849C24.4023 52.6952 24.4776 52.8241 24.6106 52.9198C24.7435 53.0153 24.922 53.063 25.1458 53.063C25.2894 53.063 25.43 53.0498 25.5684 53.0231C25.7065 52.9968 25.8195 52.964 25.9068 52.9252L26.0117 53.567C25.9696 53.5883 25.9137 53.6094 25.8438 53.6307C25.7739 53.6519 25.6961 53.6704 25.6104 53.6864C25.5246 53.7023 25.4327 53.7157 25.3347 53.7263C25.2367 53.7368 25.1389 53.7422 25.0409 53.7422C24.7925 53.7422 24.5764 53.7051 24.3927 53.6307C24.209 53.5564 24.0569 53.4548 23.9362 53.3257C23.8154 53.1966 23.7264 53.0436 23.6686 52.8666C23.6107 52.6898 23.582 52.4988 23.582 52.2936Z" fill="#00296B"/>
<path d="M27.7738 53.116C27.8508 53.116 27.9241 53.1143 27.9941 53.1108C28.064 53.1072 28.1202 53.1018 28.1621 53.0948V52.4952C28.1305 52.4882 28.0834 52.4811 28.0204 52.474C27.9574 52.467 27.8996 52.4634 27.8471 52.4634C27.7738 52.4634 27.7046 52.468 27.6398 52.4766C27.5751 52.4855 27.5184 52.5023 27.4694 52.5271C27.4204 52.5519 27.3818 52.5854 27.3539 52.6279C27.3258 52.6704 27.3118 52.7234 27.3118 52.7871C27.3118 52.911 27.3531 52.9966 27.4352 53.0444C27.5173 53.0921 27.6302 53.116 27.7738 53.116ZM27.7108 50.8027C27.9417 50.8027 28.1339 50.8291 28.2881 50.8821C28.442 50.9353 28.5652 51.0114 28.658 51.1103C28.7505 51.2095 28.8163 51.3298 28.8547 51.4712C28.8933 51.6127 28.9124 51.77 28.9124 51.9435V53.5883C28.8006 53.6131 28.6449 53.6422 28.4454 53.6758C28.2461 53.7095 28.0047 53.7263 27.7213 53.7263C27.5427 53.7263 27.381 53.7103 27.2357 53.6784C27.0906 53.6467 26.9654 53.5946 26.8605 53.5221C26.7556 53.4495 26.675 53.3548 26.6191 53.238C26.563 53.1213 26.5352 52.978 26.5352 52.8082C26.5352 52.6456 26.5675 52.5077 26.6322 52.3945C26.6971 52.2813 26.7836 52.191 26.8921 52.1238C27.0004 52.0565 27.1248 52.008 27.2647 51.9778C27.4046 51.9479 27.5497 51.9328 27.7002 51.9328C27.8018 51.9328 27.8916 51.9373 27.9705 51.9459C28.0492 51.9549 28.113 51.9664 28.1621 51.9806V51.9062C28.1621 51.7719 28.1218 51.6639 28.0414 51.5826C27.9608 51.5012 27.8209 51.4606 27.6214 51.4606C27.4885 51.4606 27.3571 51.4703 27.2279 51.4897C27.0983 51.5092 26.9865 51.5367 26.8921 51.5721L26.7924 50.9353C26.8377 50.9211 26.8947 50.906 26.9629 50.8901C27.031 50.8743 27.1054 50.8601 27.186 50.8478C27.2662 50.8353 27.3513 50.8247 27.4403 50.8159C27.5298 50.807 27.6196 50.8027 27.7108 50.8027Z" fill="#00296B"/>
<path d="M30.2314 52.1823C30.2314 52.6245 30.408 52.8456 30.7614 52.8456C30.842 52.8456 30.9171 52.8349 30.9871 52.8137C31.057 52.7926 31.1166 52.7678 31.1656 52.7394V51.4766C31.1269 51.4695 31.0817 51.4634 31.0291 51.458C30.9768 51.4527 30.9153 51.4501 30.8454 51.4501C30.639 51.4501 30.4851 51.519 30.3837 51.657C30.2822 51.7949 30.2314 51.97 30.2314 52.1823ZM31.9475 53.3178C31.9475 53.7741 31.8331 54.1128 31.6037 54.3339C31.3746 54.5549 31.0204 54.6655 30.541 54.6655C30.3731 54.6655 30.2052 54.6504 30.0373 54.6204C29.8694 54.5904 29.7135 54.5506 29.5702 54.501L29.7067 53.8379C29.829 53.8873 29.9575 53.9261 30.0923 53.9545C30.2269 53.9828 30.38 53.997 30.5516 53.997C30.7754 53.997 30.9338 53.9474 31.0265 53.8485C31.1192 53.7493 31.1656 53.6221 31.1656 53.4665V53.3654C31.0817 53.4046 30.9949 53.4337 30.9057 53.4531C30.8166 53.4726 30.7195 53.4822 30.6146 53.4822C30.2332 53.4822 29.941 53.3682 29.7381 53.1399C29.5353 52.9118 29.4336 52.5926 29.4336 52.1823C29.4336 51.9772 29.4653 51.7905 29.5282 51.6225C29.5912 51.4544 29.6828 51.3102 29.8036 51.1901C29.9244 51.0699 30.0722 50.9771 30.2472 50.9114C30.4221 50.846 30.6197 50.8133 30.8403 50.8133C30.9347 50.8133 31.0316 50.8178 31.1314 50.8266C31.2312 50.8353 31.3298 50.8469 31.4281 50.8611C31.5261 50.8752 31.6196 50.8922 31.7086 50.9114C31.7981 50.931 31.8776 50.9512 31.9475 50.9724V53.3178Z" fill="#00296B"/>
<path d="M34.9802 53.5724C34.8472 53.6114 34.6758 53.6476 34.4658 53.6812C34.256 53.7147 34.0356 53.7317 33.8047 53.7317C33.5703 53.7317 33.3751 53.6998 33.2194 53.636C33.0638 53.5724 32.9404 53.4831 32.8495 53.3682C32.7585 53.2532 32.6938 53.116 32.6554 52.9569C32.6168 52.7977 32.5977 52.6226 32.5977 52.4316V50.8769H33.3796V52.3361C33.3796 52.5907 33.4127 52.7746 33.4794 52.8879C33.5456 53.0011 33.6699 53.0578 33.8518 53.0578C33.9078 53.0578 33.9674 53.055 34.0304 53.0498C34.0934 53.0444 34.1493 53.0384 34.1983 53.0311V50.8769H34.9802V53.5724Z" fill="#00296B"/>
<path d="M37.3604 51.9915C37.3568 51.9243 37.3453 51.8588 37.3262 51.7951C37.3071 51.7314 37.2772 51.6749 37.237 51.6253C37.1969 51.5757 37.1461 51.535 37.0846 51.5032C37.0235 51.4714 36.9474 51.4556 36.8565 51.4556C36.7692 51.4556 36.6937 51.4705 36.6308 51.5007C36.5678 51.5307 36.5155 51.5705 36.4736 51.6199C36.4315 51.6695 36.3992 51.7271 36.3764 51.7924C36.3536 51.8579 36.3369 51.9243 36.3263 51.9915H37.3604ZM35.5234 52.2938C35.5234 52.0463 35.561 51.8296 35.6363 51.644C35.7115 51.4582 35.8103 51.3035 35.9327 51.1797C36.0553 51.0558 36.196 50.962 36.3554 50.8984C36.5144 50.8346 36.6783 50.8029 36.846 50.8029C37.2377 50.8029 37.5474 50.924 37.7749 51.1663C38.0024 51.4086 38.1161 51.765 38.1161 52.2355C38.1161 52.2815 38.1144 52.3319 38.111 52.3867C38.1073 52.4416 38.1037 52.4902 38.1004 52.5328H36.3263C36.344 52.6954 36.419 52.8244 36.552 52.92C36.6852 53.0155 36.8634 53.0633 37.0876 53.0633C37.2308 53.0633 37.3718 53.05 37.5098 53.0234C37.6483 52.997 37.7609 52.9642 37.8485 52.9254L37.9534 53.5673C37.9114 53.5885 37.8554 53.6096 37.7855 53.6309C37.7153 53.6522 37.6376 53.6706 37.5518 53.6867C37.466 53.7025 37.3744 53.7159 37.2764 53.7266C37.1784 53.737 37.0803 53.7424 36.9823 53.7424C36.7339 53.7424 36.5181 53.7053 36.3343 53.6309C36.1507 53.5567 35.9983 53.455 35.8779 53.3259C35.7571 53.1968 35.6678 53.0439 35.6102 52.8669C35.5524 52.69 35.5234 52.499 35.5234 52.2938Z" fill="#00296B"/>
<path d="M2.48035 48.3169C2.05274 48.3169 1.68366 48.256 1.37343 48.1347C1.06288 48.0134 0.806715 47.8446 0.60477 47.6285C0.40267 47.4124 0.253252 47.1548 0.156515 46.8557C0.0599328 46.5568 0.0117188 46.2266 0.0117188 45.8652V42.037H1.38221V45.7498C1.38221 45.9986 1.40978 46.2104 1.46554 46.3849C1.52115 46.5598 1.5974 46.7018 1.69413 46.8113C1.79056 46.921 1.90779 46.9992 2.0455 47.0467C2.18306 47.0943 2.33371 47.1179 2.49776 47.1179C2.83171 47.1179 3.10252 47.0142 3.31047 46.8068C3.51827 46.5997 3.6224 46.2474 3.6224 45.7498V42.037H4.99288V45.8652C4.99288 46.2266 4.94298 46.5582 4.84362 46.8601C4.74396 47.1622 4.59161 47.4213 4.38674 47.6374C4.18156 47.8535 3.92123 48.0208 3.60484 48.1391C3.2886 48.2576 2.91366 48.3169 2.48035 48.3169Z" fill="#00296B"/>
<path d="M13.9021 44.693C13.7848 44.6634 13.6473 44.6325 13.4891 44.5998C13.3309 44.5672 13.161 44.551 12.9797 44.551C12.8976 44.551 12.7996 44.5584 12.6853 44.5732C12.571 44.588 12.4846 44.6043 12.4262 44.622V48.1926H11.1172V43.7692C11.3513 43.6864 11.628 43.608 11.9473 43.5339C12.2665 43.4599 12.6223 43.423 13.0148 43.423C13.085 43.423 13.1699 43.4273 13.2694 43.4362C13.3691 43.4451 13.4686 43.457 13.5683 43.4718C13.6678 43.4866 13.7673 43.5043 13.8669 43.5249C13.9665 43.5459 14.0515 43.571 14.1217 43.6004L13.9021 44.693Z" fill="#00296B"/>
<path d="M16.4054 47.2687C16.5342 47.2687 16.6573 47.2658 16.7745 47.2599C16.8915 47.2541 16.9854 47.2451 17.0554 47.2333V46.2294C17.0028 46.2177 16.9237 46.2058 16.8184 46.194C16.713 46.1821 16.6163 46.1762 16.5283 46.1762C16.4054 46.1762 16.2897 46.1836 16.1814 46.1984C16.073 46.2132 15.9778 46.2414 15.896 46.2827C15.8137 46.3243 15.7493 46.3805 15.7025 46.4515C15.6555 46.5225 15.6323 46.6116 15.6323 46.718C15.6323 46.9255 15.7011 47.0689 15.8388 47.1489C15.9762 47.2288 16.1653 47.2687 16.4054 47.2687ZM16.3 43.396C16.6865 43.396 17.0085 43.4405 17.2663 43.5292C17.524 43.6181 17.7304 43.7455 17.8857 43.9111C18.0408 44.0772 18.1507 44.2785 18.2151 44.5151C18.2796 44.7522 18.3118 45.0157 18.3118 45.3058V48.0594C18.1243 48.1008 17.8638 48.1496 17.5299 48.2057C17.1961 48.2619 16.7919 48.2903 16.3176 48.2903C16.0189 48.2903 15.7478 48.2635 15.5049 48.2102C15.2618 48.1569 15.0525 48.0697 14.8767 47.9482C14.7011 47.8269 14.5662 47.6684 14.4725 47.4731C14.3789 47.2776 14.332 47.0378 14.332 46.7536C14.332 46.4812 14.3861 46.2503 14.4947 46.0607C14.603 45.8713 14.7479 45.7203 14.9295 45.6077C15.1109 45.4954 15.319 45.4138 15.5533 45.3634C15.7874 45.3132 16.0305 45.2879 16.2825 45.2879C16.4522 45.2879 16.6032 45.2955 16.7349 45.3101C16.8666 45.325 16.9735 45.3443 17.0554 45.3679V45.2435C17.0554 45.0186 16.9881 44.838 16.8533 44.7018C16.7187 44.5656 16.4844 44.4974 16.1506 44.4974C15.9279 44.4974 15.7084 44.5137 15.4916 44.5464C15.2749 44.579 15.0876 44.6249 14.9295 44.6839L14.7626 43.6181C14.8385 43.5946 14.9339 43.5693 15.048 43.5426C15.1623 43.516 15.2868 43.4924 15.4214 43.4716C15.556 43.4508 15.6982 43.4331 15.8476 43.4183C15.9969 43.4035 16.1475 43.396 16.3 43.396Z" fill="#00296B"/>
<path d="M20.7104 48.1926H19.4014V43.5206H20.7104V48.1926ZM20.8333 42.1705C20.8333 42.4132 20.7557 42.6042 20.6006 42.7433C20.4453 42.8824 20.2622 42.9519 20.0514 42.9519C19.8407 42.9519 19.6574 42.8824 19.5023 42.7433C19.3472 42.6042 19.2695 42.4132 19.2695 42.1705C19.2695 41.9277 19.3472 41.7367 19.5023 41.5974C19.6574 41.4583 19.8407 41.3887 20.0514 41.3887C20.2622 41.3887 20.4453 41.4583 20.6006 41.5974C20.7557 41.7367 20.8333 41.9277 20.8333 42.1705Z" fill="#00296B"/>
<path d="M21.8438 43.6804C22.0662 43.6154 22.3532 43.5545 22.7047 43.4981C23.056 43.4421 23.4253 43.4139 23.8118 43.4139C24.2041 43.4139 24.5307 43.4658 24.7911 43.5693C25.0519 43.673 25.2583 43.8195 25.4107 44.0089C25.5629 44.1987 25.671 44.4234 25.7357 44.6841C25.7999 44.9447 25.8323 45.2348 25.8323 45.5546V48.1926H24.5233V45.7144C24.5233 45.2881 24.4677 44.9861 24.3564 44.8084C24.2449 44.6308 24.037 44.5419 23.7327 44.5419C23.6388 44.5419 23.5393 44.5464 23.4339 44.5553C23.3284 44.5641 23.2347 44.5746 23.1528 44.5863V48.1926H21.8438V43.6804Z" fill="#00296B"/>
<path d="M28.2296 48.1926H26.9206V43.5206H28.2296V48.1926ZM28.3527 42.1705C28.3527 42.4132 28.2751 42.6042 28.12 42.7433C27.9647 42.8824 27.7817 42.9519 27.5707 42.9519C27.3599 42.9519 27.1768 42.8824 27.0217 42.7433C26.8665 42.6042 26.7891 42.4132 26.7891 42.1705C26.7891 41.9277 26.8665 41.7367 27.0217 41.5974C27.1768 41.4583 27.3599 41.3887 27.5707 41.3887C27.7817 41.3887 27.9647 41.4583 28.12 41.5974C28.2751 41.7367 28.3527 41.9277 28.3527 42.1705Z" fill="#00296B"/>
<path d="M31.1281 47.2689C31.2568 47.2689 31.3799 47.266 31.4973 47.2602C31.6144 47.2543 31.708 47.2454 31.7781 47.2335V46.2296C31.7256 46.2179 31.6464 46.2061 31.541 46.1942C31.4357 46.1823 31.3391 46.1765 31.251 46.1765C31.1281 46.1765 31.0125 46.1839 30.9041 46.1987C30.7956 46.2135 30.7004 46.2417 30.6185 46.2829C30.5364 46.3245 30.4722 46.3807 30.4252 46.4518C30.3782 46.5228 30.3551 46.6118 30.3551 46.7182C30.3551 46.9257 30.4239 47.0692 30.5615 47.1491C30.6989 47.229 30.8879 47.2689 31.1281 47.2689ZM31.0227 43.3962C31.4092 43.3962 31.7311 43.4408 31.9891 43.5295C32.2467 43.6184 32.4531 43.7458 32.6085 43.9113C32.7636 44.0774 32.8733 44.2787 32.9379 44.5153C33.0023 44.7524 33.0346 45.016 33.0346 45.306V48.0596C32.8471 48.1011 32.5867 48.1499 32.2527 48.206C31.9187 48.2622 31.5145 48.2905 31.0403 48.2905C30.7416 48.2905 30.4706 48.2637 30.2277 48.2104C29.9846 48.1571 29.7751 48.0699 29.5994 47.9484C29.4238 47.8272 29.2888 47.6687 29.1952 47.4733C29.1017 47.2779 29.0547 47.038 29.0547 46.7538C29.0547 46.4815 29.1088 46.2506 29.2175 46.061C29.3256 45.8715 29.4706 45.7205 29.6522 45.6079C29.8335 45.4956 30.0418 45.414 30.2759 45.3636C30.5102 45.3134 30.7533 45.2881 31.0051 45.2881C31.175 45.2881 31.3258 45.2957 31.4577 45.3103C31.5892 45.3253 31.6962 45.3445 31.7781 45.3681V45.2438C31.7781 45.0189 31.7108 44.8382 31.576 44.702C31.4414 44.5659 31.2071 44.4976 30.8734 44.4976C30.6507 44.4976 30.431 44.5139 30.2144 44.5466C29.9976 44.5793 29.8104 44.6252 29.6522 44.6842L29.4854 43.6184C29.5613 43.5948 29.6565 43.5695 29.7708 43.5429C29.8851 43.5162 30.0093 43.4927 30.1441 43.4719C30.2787 43.4511 30.4209 43.4334 30.5703 43.4186C30.7195 43.4038 30.8703 43.3962 31.0227 43.3962Z" fill="#00296B"/>
<path d="M34.125 43.6804C34.3474 43.6154 34.6344 43.5545 34.9858 43.4981C35.3373 43.4421 35.7062 43.4139 36.0927 43.4139C36.4852 43.4139 36.8118 43.4658 37.0724 43.5693C37.3329 43.673 37.5393 43.8195 37.6919 44.0089C37.844 44.1987 37.9524 44.4234 38.017 44.6841C38.0812 44.9447 38.1134 45.2348 38.1134 45.5546V48.1926H36.8045V45.7144C36.8045 45.2881 36.7487 44.9861 36.6374 44.8084C36.5262 44.6308 36.3184 44.5419 36.0137 44.5419C35.92 44.5419 35.8205 44.5464 35.7151 44.5553C35.6096 44.5641 35.516 44.5746 35.434 44.5863V48.1926H34.125V43.6804Z" fill="#00296B"/>
<path d="M7.27294 45.1596C7.39833 45.0353 7.53312 44.8994 7.6773 44.7522C7.82117 44.6049 7.96073 44.4589 8.09598 44.3146C8.23138 44.1702 8.35969 44.0293 8.48123 43.8919C8.60276 43.7545 8.71213 43.6342 8.80933 43.531H10.3984C10.2826 43.6567 10.1381 43.811 9.9654 43.9942C9.79241 44.1775 9.60941 44.3682 9.41625 44.5664C9.22308 44.7645 9.02838 44.9614 8.83244 45.1565C8.63619 45.3519 8.4515 45.5247 8.2782 45.6747C8.45304 45.8115 8.63973 45.981 8.83783 46.1831C9.03608 46.3853 9.23047 46.6014 9.42118 46.8319C9.61141 47.0625 9.79287 47.2964 9.96509 47.5334C10.1373 47.7706 10.2846 47.9927 10.4073 48.2002H8.91824C8.81257 48.0401 8.69226 47.8727 8.55732 47.6976C8.42223 47.5226 8.28252 47.3501 8.13787 47.1798C7.99323 47.0098 7.84535 46.8502 7.6944 46.7012C7.54359 46.5524 7.40295 46.4244 7.27294 46.3172V48.2002H5.96484V43.531H7.27294V45.1596Z" fill="#00296B"/>
<path d="M18.5115 1.56344C18.271 1.79326 17.9531 2.10227 17.7143 2.33364C17.7222 2.07362 17.7428 1.72703 17.7576 1.46716C17.4129 1.42665 16.9523 1.38013 16.6069 1.34439C16.9659 1.24211 17.4465 1.11257 17.8066 1.0149C17.8336 0.839607 17.8847 0.608397 17.922 0.435102C18.095 0.557409 18.3265 0.719458 18.5001 0.840994C18.8046 0.768749 19.2121 0.677866 19.5175 0.609165C19.3445 0.772139 19.1147 0.98995 18.9422 1.15339C19.1917 1.33146 19.5231 1.57099 19.7717 1.75044C19.3943 1.69037 18.8898 1.61828 18.5115 1.56344ZM14.5029 3.11338C14.2566 3.49617 13.9436 4.01636 13.7085 4.40639C13.6269 4.06642 13.54 3.60831 13.4755 3.2648C12.9853 3.34429 12.3337 3.46274 11.8451 3.55162C12.3122 3.26942 12.9424 2.90604 13.4153 2.6337C13.4112 2.36937 13.4397 2.01724 13.4625 1.75398C13.7267 1.86736 14.0796 2.01693 14.3443 2.12922C14.7585 1.91388 15.3152 1.63537 15.7328 1.42696C15.5009 1.71363 15.2073 2.10827 14.9868 2.40388C15.3375 2.55591 15.8044 2.76048 16.1547 2.9139C15.6585 2.96797 14.9982 3.05099 14.5029 3.11338ZM10.2185 6.47621C10.0258 7.01088 9.79703 7.73363 9.62712 8.27585C9.4412 7.87843 9.21815 7.33714 9.05348 6.93047C8.52035 7.15398 7.81778 7.47115 7.29158 7.71053C7.73798 7.23331 8.35322 6.61577 8.81595 6.15427C8.74139 5.8143 8.67947 5.35357 8.63711 5.00806C8.98401 5.08477 9.44659 5.18582 9.79364 5.26161C10.2607 4.86157 10.8976 4.34523 11.3765 3.95936C11.139 4.39822 10.8507 4.99836 10.6358 5.44877C11.098 5.55321 11.7136 5.69523 12.1752 5.80183C11.5851 5.99499 10.804 6.26933 10.2185 6.47621ZM6.1711 12.2861C6.08761 13.1034 6.01228 14.1968 5.97223 15.0174C5.6352 14.4482 5.20573 13.6774 4.89719 13.0923C4.34666 13.4839 3.62899 14.0294 3.10202 14.4521C3.47002 13.6945 3.99606 12.7017 4.40781 11.9669C4.24099 11.4679 4.05167 10.7908 3.93229 10.2784C4.35883 10.3474 4.92738 10.4401 5.35377 10.5099C5.8413 9.84535 6.51661 8.97781 7.03557 8.33762C6.82946 9.03834 6.59024 9.98307 6.42742 10.6949C7.03233 10.805 7.83826 10.9549 8.44256 11.0687C7.75308 11.4187 6.84486 11.907 6.1711 12.2861ZM4.29351 23.5422C3.65363 22.6865 3.63654 22.6591 2.74018 21.2227C2.26667 21.7512 2.23324 21.8039 1.673 22.685C1.69225 21.628 1.70812 21.5218 1.97399 19.747C1.57703 18.8617 1.56024 18.8044 1.13093 17.3363C1.51295 17.5256 1.58227 17.5529 2.4301 17.8862C2.76837 16.7787 2.79856 16.7084 3.57307 14.9095C3.4557 16.1169 3.45677 16.2381 3.47541 18.2608C4.10405 18.4782 4.26255 18.5292 5.49579 18.9263C4.74315 19.4254 4.68138 19.4762 3.65055 20.3259C3.80891 21.5178 3.83633 21.6323 4.29351 23.5422ZM23.0062 0.417387C18.5135 -0.527952 15.1764 0.393049 14.2158 0.64444C13.2561 0.895678 12.3108 1.22332 11.3893 1.62706C10.468 2.03064 9.5709 2.51078 8.70689 3.06763C7.93978 3.60692 6.94653 4.36926 6.22532 4.96894C0.363203 10.2613 -1.22032 18.2624 0.89279 25.3811C1.51264 27.4693 8.27065 24.1376 15.3919 8.82962C17.7276 3.80871 22.0156 -0.198769 27.2306 1.78726C26.908 1.646 25.158 0.870262 23.0062 0.417387Z" fill="#00296B"/>
<path d="M36.2198 21.5902C35.7674 23.5112 35.7201 23.7121 35.2118 25.1011C35.2369 23.366 35.24 23.1431 35.0906 21.7593C33.9695 21.873 33.8254 21.8876 32.8407 21.9428C33.9496 20.6983 34.0656 20.5683 34.7267 19.6287C34.2665 17.8175 34.2184 17.6282 33.7282 16.2839C34.7831 17.2774 34.9453 17.4301 35.6103 18.1698C36.2077 16.9054 36.27 16.7732 36.5385 15.8337C36.6383 17.7107 36.6488 17.907 36.541 19.3475C37.1803 20.3579 37.2624 20.4877 37.5692 21.2487C36.9293 21.4442 36.8623 21.4645 36.2198 21.5902ZM32.6546 28.6544C32.2718 29.4391 31.7328 30.4716 31.3063 31.2334C31.3212 30.5494 31.3044 29.6366 31.2676 28.9536C30.5167 29.0837 29.5128 29.2413 28.7583 29.349C29.4664 28.7812 30.3936 28.0025 31.0746 27.4026C30.9246 26.5925 30.6977 25.5174 30.5099 24.7152C31.078 25.1272 31.8303 25.6839 32.3895 26.108C32.965 25.468 33.707 24.5916 34.242 23.9174C34.0069 24.823 33.6563 26.0211 33.3647 26.9101C33.7412 27.2564 34.231 27.7319 34.5848 28.1014C34.0097 28.2804 33.237 28.5007 32.6546 28.6544ZM29.6328 33.4435C29.1912 33.4492 28.6021 33.4554 28.1605 33.454C27.7503 33.8878 27.2021 34.4651 26.7778 34.8852C26.894 34.4519 27.0448 33.8725 27.1352 33.4332C26.6007 33.4104 25.8878 33.3785 25.3536 33.3462C25.9372 33.0757 26.7148 32.7135 27.2931 32.4318C27.3455 31.9059 27.4119 31.2042 27.4427 30.6768C27.76 31.0145 28.1822 31.4658 28.4877 31.8142C29.0425 31.5023 29.7814 31.0842 30.3263 30.7554C29.9376 31.2746 29.4173 31.9658 29.0103 32.4711C29.2041 32.7582 29.4613 33.1425 29.6328 33.4435ZM24.4731 35.4939C24.6575 35.6966 24.9052 35.9654 25.0811 36.1754C24.6934 36.164 24.155 36.004 23.789 36.1321C23.4785 36.404 23.0658 36.768 22.7492 37.0328C22.8118 36.748 22.8973 36.3684 22.9447 36.0807C22.5216 36.0451 21.9573 35.9986 21.5348 35.957C21.9846 35.7921 22.5847 35.5733 23.0324 35.4027C23.0616 35.0374 23.1025 34.5503 23.1203 34.1841C23.3864 34.4344 23.7417 34.7672 24.0044 35.021C24.4874 34.8212 25.1321 34.556 25.6121 34.3488C25.2723 34.6942 24.8205 35.1561 24.4731 35.4939ZM20.4451 37.6916C20.1967 37.6026 19.8652 37.4849 19.6176 37.3938C19.3806 37.5085 19.0651 37.6622 18.8273 37.7751C18.8927 37.5958 18.9793 37.3567 19.0455 37.1777C18.7453 37.0587 18.3445 36.9014 18.0454 36.7792C18.3956 36.7669 18.8627 36.7526 19.2127 36.7359C19.3069 36.4909 19.4325 36.164 19.5264 35.9188C19.6548 36.1514 19.8271 36.4608 19.9533 36.6947C20.3143 36.6685 20.7959 36.636 21.1566 36.6052C20.8616 36.7589 20.4693 36.9653 20.1729 37.1164C20.2554 37.2886 20.368 37.5169 20.4451 37.6916ZM37.5983 14.5198C37.1354 12.3913 30.1484 15.2108 21.9079 29.9465C19.2051 34.7798 14.6309 38.457 9.57812 36.0887C9.88913 36.2535 11.5768 37.1574 13.6888 37.7689C18.0988 39.0459 21.4952 38.3758 22.4717 38.1965C23.4475 38.0174 24.4146 37.7611 25.3636 37.427C26.3122 37.093 27.2427 36.681 28.1457 36.19C28.9509 35.7093 29.9982 35.0229 30.7619 34.4787C37.0014 29.637 39.176 21.776 37.5983 14.5198Z" fill="#00296B"/>
<path d="M31.8562 7.52184C31.4244 7.11117 30.5829 6.96329 30.0322 6.73547C30.3692 6.6318 30.8192 6.49609 31.157 6.3952C30.8044 5.90119 30.3007 5.26701 29.9153 4.79811C30.4751 5.21387 31.2024 5.79352 31.7434 6.2333C31.962 6.17831 32.2541 6.10714 32.4733 6.05461C32.6133 6.40136 32.7531 6.88181 32.8474 7.2438C33.3562 7.75952 34.0078 8.47364 34.4899 9.01448C34.0317 8.71472 33.404 8.34133 32.9301 8.06698C32.9231 8.49629 32.871 9.06762 32.8243 9.49446C32.5558 8.89232 32.161 8.10641 31.8562 7.52184ZM28.1497 11.1951C27.0158 10.938 26.83 10.9062 25.0526 10.6026C25.9824 10.1243 26.1509 10.0428 27.4624 9.40804C27.03 8.39277 26.9701 8.28063 26.2367 6.90938C27.2552 7.57714 27.3149 7.62227 28.8466 8.78034C29.6243 8.44653 29.7346 8.40263 30.7904 7.98226C30.7272 8.72658 30.7055 8.83332 30.439 10.14C31.3907 11.0282 31.4434 11.0869 32.7912 12.5911C31.802 12.2057 31.6672 12.1652 30.018 11.6684C29.7201 12.6093 29.6604 12.7738 29.0879 14.3476C28.7746 13.103 28.7273 12.959 28.1497 11.1951ZM21.6851 17.4136C21.6851 17.4136 19.9057 16.9731 17.8928 16.4201C19.3639 15.8207 19.6304 15.7007 21.364 14.92C21.1215 13.2225 21.091 13.0617 20.7174 11.0922C21.9576 12.3413 21.9863 12.3708 23.48 13.9172C24.863 13.2384 25.1045 13.1095 26.6751 12.2699C26.1201 13.7071 25.9779 14.0208 25.1889 15.7617C26.3041 17.018 27.7498 18.7576 27.7498 18.7576L24.0795 17.9662L22.3524 21.3649L21.6851 17.4136ZM17.9917 21.9042C19.2461 23.2331 19.5072 23.5097 20.5814 24.6129C18.7339 24.3061 16.9486 23.9492 16.9486 23.9492L15.5747 27.0132L14.7047 23.4187L11.3134 22.3845L14.4115 21.0878C14.4115 21.0878 14.1985 19.0518 14.0497 17.4139C15.2346 18.8644 16.4003 20.1763 16.4003 20.1763L19.5591 18.5937L17.9917 21.9042ZM11.3999 27.2874C11.8168 26.5357 12.2351 25.7849 12.6524 25.0333C11.7313 25.3936 11.6991 25.4049 10.0133 25.9936C9.24122 25.2367 9.24122 25.2367 7.83792 23.6618C8.00767 24.6508 8.03171 24.7553 8.43175 26.4982C7.57606 26.7567 7.54725 26.764 6.03474 27.1423C6.96991 27.5036 8.88524 28.0898 8.88524 28.0898L9.66575 30.7496C9.66575 30.7496 10.073 29.7115 10.7014 28.5507C11.6749 28.77 11.7477 28.7826 13.6142 29.1049C12.846 28.5225 12.846 28.5225 11.3999 27.2874ZM6.20711 30.4042C6.42107 30.0739 6.72468 29.6456 6.95851 29.3289C6.3935 29.3047 5.64086 29.2558 5.07723 29.2101C4.55134 28.5828 3.88035 27.7212 3.39174 27.0645C3.55394 27.6748 3.81057 28.4778 4.02407 29.0721C3.58012 28.989 2.99216 28.8567 2.55469 28.745C3.14589 29.1965 3.95506 29.7719 4.5706 30.1896C4.87914 30.6787 5.33063 31.3055 5.68769 31.7602C5.72635 31.5208 5.81985 31.2088 5.90211 30.9805C6.55601 31.3249 7.43973 31.7621 8.1078 32.0786C7.52214 31.5945 6.76427 30.921 6.20711 30.4042Z" fill="#00296B"/>
<path d="M16.0101 34.6597C17.7869 33.6275 19.5025 31.7414 20.8403 29.3491C21.4831 28.1995 22.1225 27.1144 22.7561 26.0914C22.6652 26.1357 22.5746 26.1789 22.4848 26.2208C13.831 30.2508 10.9784 33.3777 10.0391 34.9561C10.0588 34.9641 10.0787 34.9712 10.0982 34.9803C12.0667 35.903 14.0558 35.795 16.0101 34.6597Z" fill="#00296B"/>
<path d="M20.9221 3.69074C19.2269 4.85219 17.6566 6.86071 16.5004 9.34613C15.9448 10.5404 15.3878 11.6698 14.832 12.7373C14.9195 12.6863 15.0067 12.6364 15.0931 12.588C23.4231 7.92527 26.0351 4.59479 26.8545 2.95089C26.8343 2.94442 26.8138 2.93887 26.7938 2.93117C24.7622 2.15758 22.7868 2.41329 20.9221 3.69074Z" fill="#00296B"/>
</svg>
