<svg width="39" height="39" viewBox="0 0 39 39" fill="none" xmlns="http://www.w3.org/2000/svg">
<path d="M18.5115 1.56344C18.271 1.79327 17.9531 2.10227 17.7143 2.33363C17.7222 2.07362 17.7428 1.72703 17.7576 1.46716C17.4129 1.42665 16.9523 1.38013 16.6069 1.3444C16.9659 1.24211 17.4465 1.11257 17.8066 1.0149C17.8336 0.839608 17.8847 0.608396 17.922 0.435102C18.095 0.557409 18.3265 0.719458 18.5001 0.840995C18.8046 0.76875 19.2121 0.677866 19.5175 0.609165C19.3445 0.772138 19.1147 0.98995 18.9422 1.15339C19.1917 1.33146 19.5231 1.57099 19.7717 1.75044C19.3943 1.69037 18.8898 1.61828 18.5115 1.56344ZM14.5029 3.11338C14.2566 3.49617 13.9436 4.01636 13.7085 4.40638C13.6269 4.06642 13.54 3.60831 13.4755 3.2648C12.9853 3.34429 12.3337 3.46274 11.8451 3.55162C12.3122 3.26942 12.9424 2.90604 13.4153 2.6337C13.4112 2.36937 13.4397 2.01724 13.4625 1.75399C13.7267 1.86736 14.0796 2.01693 14.3443 2.12923C14.7585 1.91388 15.3152 1.63537 15.7328 1.42696C15.5009 1.71363 15.2073 2.10827 14.9868 2.40388C15.3375 2.55591 15.8044 2.76048 16.1547 2.9139C15.6585 2.96797 14.9982 3.05099 14.5029 3.11338ZM10.2185 6.47621C10.0258 7.01088 9.79703 7.73363 9.62712 8.27585C9.4412 7.87843 9.21815 7.33713 9.05348 6.93047C8.52035 7.15398 7.81778 7.47115 7.29158 7.71053C7.73798 7.23331 8.35322 6.61577 8.81595 6.15427C8.7414 5.8143 8.67947 5.35357 8.63711 5.00806C8.98401 5.08477 9.44659 5.18582 9.79364 5.26161C10.2607 4.86157 10.8976 4.34523 11.3765 3.95936C11.139 4.39822 10.8507 4.99836 10.6358 5.44877C11.098 5.55321 11.7136 5.69523 12.1752 5.80183C11.5851 5.99499 10.804 6.26934 10.2185 6.47621ZM6.1711 12.2861C6.08761 13.1034 6.01228 14.1968 5.97223 15.0174C5.6352 14.4482 5.20573 13.6774 4.89719 13.0923C4.34666 13.4839 3.62899 14.0294 3.10202 14.4521C3.47002 13.6945 3.99606 12.7017 4.40781 11.9669C4.24099 11.4679 4.05167 10.7908 3.93229 10.2784C4.35883 10.3474 4.92739 10.4401 5.35377 10.5099C5.8413 9.84535 6.51661 8.97781 7.03557 8.33762C6.82946 9.03834 6.59024 9.98307 6.42742 10.6949C7.03233 10.805 7.83826 10.9549 8.44256 11.0687C7.75308 11.4187 6.84486 11.907 6.1711 12.2861ZM4.29351 23.5422C3.65363 22.6865 3.63654 22.6591 2.74018 21.2227C2.26667 21.7512 2.23324 21.8039 1.673 22.685C1.69225 21.628 1.70812 21.5218 1.97399 19.747C1.57703 18.8617 1.56024 18.8044 1.13093 17.3363C1.51295 17.5256 1.58227 17.5529 2.4301 17.8862C2.76837 16.7787 2.79856 16.7084 3.57307 14.9095C3.4557 16.1169 3.45677 16.2381 3.47541 18.2608C4.10405 18.4782 4.26255 18.5292 5.49579 18.9263C4.74315 19.4254 4.68138 19.4762 3.65055 20.3259C3.80891 21.5178 3.83633 21.6323 4.29351 23.5422ZM23.0062 0.417387C18.5135 -0.527952 15.1764 0.393048 14.2158 0.64444C13.2561 0.895678 12.3108 1.22332 11.3893 1.62706C10.468 2.03064 9.5709 2.51078 8.70689 3.06763C7.93978 3.60692 6.94653 4.36926 6.22532 4.96894C0.363203 10.2613 -1.22032 18.2624 0.892791 25.3811C1.51264 27.4693 8.27065 24.1376 15.3919 8.82962C17.7276 3.80871 22.0156 -0.198769 27.2306 1.78726C26.908 1.646 25.158 0.870262 23.0062 0.417387Z" fill="#00296B"/>
<path d="M36.2198 21.5902C35.7674 23.5112 35.7201 23.7121 35.2118 25.1011C35.2369 23.366 35.24 23.1431 35.0906 21.7593C33.9695 21.873 33.8254 21.8876 32.8407 21.9428C33.9496 20.6983 34.0656 20.5683 34.7267 19.6287C34.2665 17.8175 34.2184 17.6282 33.7282 16.2839C34.7831 17.2774 34.9453 17.4301 35.6103 18.1698C36.2077 16.9054 36.27 16.7732 36.5385 15.8337C36.6383 17.7107 36.6488 17.907 36.541 19.3475C37.1803 20.3579 37.2624 20.4877 37.5692 21.2487C36.9293 21.4442 36.8623 21.4645 36.2198 21.5902ZM32.6546 28.6544C32.2718 29.4391 31.7328 30.4716 31.3063 31.2334C31.3212 30.5494 31.3044 29.6366 31.2676 28.9536C30.5167 29.0837 29.5128 29.2413 28.7583 29.349C29.4664 28.7812 30.3936 28.0025 31.0746 27.4026C30.9246 26.5925 30.6977 25.5174 30.5099 24.7152C31.078 25.1272 31.8303 25.6839 32.3895 26.108C32.965 25.468 33.707 24.5916 34.242 23.9174C34.0069 24.823 33.6563 26.0211 33.3647 26.9101C33.7412 27.2564 34.231 27.7319 34.5848 28.1014C34.0097 28.2804 33.237 28.5007 32.6546 28.6544ZM29.6328 33.4435C29.1912 33.4492 28.6021 33.4554 28.1605 33.454C27.7503 33.8878 27.2021 34.4651 26.7778 34.8852C26.894 34.4519 27.0448 33.8725 27.1352 33.4332C26.6007 33.4104 25.8878 33.3785 25.3536 33.3462C25.9372 33.0757 26.7148 32.7135 27.2931 32.4318C27.3455 31.9059 27.4119 31.2042 27.4427 30.6768C27.76 31.0145 28.1822 31.4658 28.4877 31.8142C29.0425 31.5023 29.7814 31.0842 30.3263 30.7554C29.9376 31.2746 29.4173 31.9658 29.0103 32.4711C29.2041 32.7582 29.4613 33.1425 29.6328 33.4435ZM24.4731 35.4939C24.6575 35.6966 24.9052 35.9654 25.0811 36.1754C24.6934 36.164 24.155 36.004 23.789 36.1321C23.4785 36.404 23.0658 36.768 22.7492 37.0328C22.8118 36.748 22.8973 36.3684 22.9447 36.0807C22.5216 36.0451 21.9573 35.9986 21.5348 35.957C21.9846 35.7921 22.5847 35.5733 23.0324 35.4027C23.0616 35.0374 23.1025 34.5503 23.1203 34.1841C23.3864 34.4344 23.7417 34.7672 24.0044 35.021C24.4874 34.8212 25.1321 34.556 25.6121 34.3488C25.2723 34.6942 24.8205 35.1561 24.4731 35.4939ZM20.4451 37.6916C20.1967 37.6026 19.8652 37.4849 19.6176 37.3938C19.3806 37.5085 19.0651 37.6622 18.8273 37.7751C18.8927 37.5958 18.9793 37.3567 19.0455 37.1777C18.7453 37.0587 18.3445 36.9014 18.0454 36.7792C18.3956 36.7669 18.8627 36.7526 19.2127 36.7359C19.3069 36.4909 19.4325 36.164 19.5264 35.9188C19.6548 36.1514 19.8271 36.4608 19.9533 36.6947C20.3143 36.6685 20.7959 36.636 21.1566 36.6052C20.8616 36.7589 20.4693 36.9653 20.1729 37.1164C20.2554 37.2886 20.368 37.5169 20.4451 37.6916ZM37.5983 14.5198C37.1354 12.3913 30.1484 15.2108 21.9079 29.9465C19.2051 34.7798 14.6309 38.457 9.57812 36.0887C9.88913 36.2535 11.5768 37.1574 13.6888 37.7689C18.0988 39.0459 21.4952 38.3758 22.4717 38.1965C23.4475 38.0174 24.4146 37.7611 25.3636 37.427C26.3122 37.093 27.2427 36.681 28.1457 36.19C28.9509 35.7093 29.9982 35.0229 30.7619 34.4787C37.0014 29.637 39.176 21.776 37.5983 14.5198Z" fill="#00296B"/>
<path d="M31.8562 7.52184C31.4244 7.11117 30.5829 6.96329 30.0322 6.73547C30.3692 6.6318 30.8192 6.49609 31.157 6.39519C30.8044 5.90119 30.3007 5.26701 29.9153 4.79811C30.4751 5.21387 31.2024 5.79352 31.7434 6.2333C31.962 6.17831 32.2541 6.10714 32.4733 6.05461C32.6133 6.40136 32.7531 6.8818 32.8474 7.2438C33.3562 7.75952 34.0078 8.47365 34.4899 9.01448C34.0317 8.71472 33.404 8.34133 32.9301 8.06698C32.9231 8.49629 32.871 9.06762 32.8243 9.49446C32.5558 8.89232 32.161 8.10642 31.8562 7.52184ZM28.1497 11.1951C27.0158 10.938 26.83 10.9062 25.0526 10.6026C25.9824 10.1243 26.1509 10.0428 27.4624 9.40805C27.03 8.39277 26.9701 8.28063 26.2367 6.90938C27.2552 7.57714 27.3149 7.62227 28.8466 8.78034C29.6243 8.44653 29.7346 8.40263 30.7904 7.98226C30.7272 8.72658 30.7055 8.83333 30.439 10.14C31.3907 11.0282 31.4434 11.0869 32.7912 12.5911C31.802 12.2057 31.6672 12.1652 30.018 11.6684C29.7201 12.6093 29.6604 12.7738 29.0879 14.3476C28.7746 13.103 28.7273 12.959 28.1497 11.1951ZM21.6851 17.4136C21.6851 17.4136 19.9057 16.9731 17.8928 16.4201C19.3639 15.8207 19.6304 15.7007 21.364 14.92C21.1215 13.2225 21.091 13.0617 20.7174 11.0922C21.9576 12.3413 21.9863 12.3708 23.48 13.9172C24.863 13.2384 25.1045 13.1095 26.6751 12.2699C26.1201 13.7071 25.9779 14.0208 25.1889 15.7617C26.3041 17.018 27.7498 18.7576 27.7498 18.7576L24.0795 17.9662L22.3524 21.3649L21.6851 17.4136ZM17.9917 21.9042C19.2461 23.2331 19.5072 23.5097 20.5814 24.6129C18.7339 24.3061 16.9486 23.9492 16.9486 23.9492L15.5747 27.0132L14.7047 23.4187L11.3134 22.3845L14.4115 21.0878C14.4115 21.0878 14.1985 19.0518 14.0497 17.4139C15.2346 18.8644 16.4003 20.1763 16.4003 20.1763L19.5591 18.5937L17.9917 21.9042ZM11.3999 27.2874C11.8168 26.5357 12.2351 25.7849 12.6524 25.0333C11.7313 25.3936 11.6991 25.4049 10.0133 25.9936C9.24122 25.2367 9.24122 25.2367 7.83792 23.6618C8.00767 24.6508 8.03171 24.7553 8.43175 26.4982C7.57606 26.7567 7.54725 26.764 6.03474 27.1423C6.96991 27.5036 8.88524 28.0898 8.88524 28.0898L9.66575 30.7496C9.66575 30.7496 10.073 29.7115 10.7014 28.5507C11.6749 28.77 11.7477 28.7826 13.6142 29.1049C12.846 28.5225 12.846 28.5225 11.3999 27.2874ZM6.20711 30.4042C6.42107 30.0739 6.72468 29.6456 6.95851 29.3289C6.3935 29.3047 5.64086 29.2558 5.07723 29.2101C4.55134 28.5828 3.88035 27.7212 3.39174 27.0645C3.55394 27.6748 3.81057 28.4778 4.02407 29.0721C3.58012 28.989 2.99216 28.8567 2.55469 28.745C3.14589 29.1965 3.95506 29.7719 4.5706 30.1896C4.87914 30.6787 5.33063 31.3055 5.68769 31.7602C5.72635 31.5208 5.81985 31.2088 5.90211 30.9805C6.55601 31.3249 7.43973 31.7621 8.1078 32.0786C7.52214 31.5945 6.76427 30.921 6.20711 30.4042Z" fill="#00296B"/>
<path d="M16.0101 34.6597C17.7869 33.6275 19.5025 31.7414 20.8403 29.3491C21.4831 28.1995 22.1225 27.1144 22.7561 26.0914C22.6652 26.1357 22.5746 26.1789 22.4848 26.2208C13.831 30.2508 10.9784 33.3777 10.0391 34.9561C10.0588 34.9641 10.0787 34.9712 10.0982 34.9803C12.0667 35.903 14.0558 35.795 16.0101 34.6597Z" fill="#00296B"/>
<path d="M20.9221 3.69074C19.2269 4.85219 17.6566 6.86071 16.5004 9.34613C15.9448 10.5404 15.3878 11.6698 14.832 12.7373C14.9195 12.6863 15.0067 12.6364 15.0931 12.588C23.4231 7.92527 26.0351 4.59479 26.8545 2.95089C26.8343 2.94442 26.8138 2.93887 26.7938 2.93117C24.7622 2.15758 22.7868 2.41329 20.9221 3.69074Z" fill="#00296B"/>
</svg>
