<svg width="57" height="57" viewBox="0 0 57 57" fill="none" xmlns="http://www.w3.org/2000/svg">
<circle cx="28.5" cy="28.5" r="27.5" fill="#D9D9D9" fill-opacity="0.02" stroke="#00296B" stroke-width="2"/>
<circle cx="29" cy="26" r="11" fill="#D9D9D9" fill-opacity="0.02" stroke="#00296B" stroke-width="2"/>
<mask id="path-3-inside-1_552_596" fill="white">
<path fill-rule="evenodd" clip-rule="evenodd" d="M42.7552 53.1846C38.5622 55.6111 33.6936 57 28.5006 57C23.3077 57 18.4391 55.6111 14.2461 53.1846C17.1082 48.2888 22.4204 45 28.5006 45C34.5809 45 39.8931 48.2888 42.7552 53.1846Z"/>
</mask>
<path fill-rule="evenodd" clip-rule="evenodd" d="M42.7552 53.1846C38.5622 55.6111 33.6936 57 28.5006 57C23.3077 57 18.4391 55.6111 14.2461 53.1846C17.1082 48.2888 22.4204 45 28.5006 45C34.5809 45 39.8931 48.2888 42.7552 53.1846Z" fill="#D9D9D9" fill-opacity="0.02"/>
<path d="M42.7552 53.1846L43.757 54.9156L45.4956 53.9094L44.4818 52.1752L42.7552 53.1846ZM14.2461 53.1846L12.5195 52.1752L11.5057 53.9094L13.2443 54.9156L14.2461 53.1846ZM41.7534 51.4536C37.8567 53.7086 33.3325 55 28.5006 55V59C34.0547 59 39.2677 57.5136 43.757 54.9156L41.7534 51.4536ZM28.5006 55C23.6688 55 19.1446 53.7086 15.2479 51.4535L13.2443 54.9156C17.7336 57.5136 22.9466 59 28.5006 59V55ZM15.9727 54.194C18.4909 49.8864 23.1598 47 28.5006 47V43C21.6809 43 15.7255 46.6912 12.5195 52.1752L15.9727 54.194ZM28.5006 47C33.8414 47 38.5103 49.8864 41.0286 54.194L44.4818 52.1752C41.2758 46.6912 35.3204 43 28.5006 43V47Z" fill="#00296B" mask="url(#path-3-inside-1_552_596)"/>
</svg>
