<svg width="28" height="28" viewBox="0 0 28 28" fill="none" xmlns="http://www.w3.org/2000/svg">
<circle cx="14" cy="14" r="13" fill="#00296B" stroke="#00296B" stroke-width="2"/>
<path d="M8.10757 14.2614C7.51792 12.7233 6.63346 10.7238 5.45418 8.26286L5 7.24286V7H12.3386L12.8645 9.74429L12.7689 9.89C12.3864 9.84143 11.9721 9.79286 11.5259 9.74429C11.0797 9.67953 10.6813 9.64714 10.3307 9.64714L14.3944 20.8671L16.8805 13.9457C16.992 13.6219 17.1035 13.29 17.2152 12.95C17.3426 12.61 17.4701 12.2619 17.5976 11.9057C17.7889 11.3067 18.0279 10.5538 18.3148 9.64714C18.0916 9.64714 17.8287 9.66333 17.5259 9.69572C17.223 9.7281 16.9283 9.76857 16.6414 9.81714L16.1633 9.86572L16.0677 9.72L16.6414 7H23V7.26714C22.5537 8.12524 22.0995 9.11286 21.6375 10.23C21.1753 11.331 20.6255 12.7071 19.9881 14.3586C19.9083 14.5852 19.8286 14.8038 19.749 15.0143C19.6693 15.2248 19.5817 15.4352 19.4861 15.6457L16.1872 24H11.8366L8.10757 14.2614Z" fill="#FFD500"/>
</svg>
