<svg width="39" height="39" viewBox="0 0 39 39" fill="none" xmlns="http://www.w3.org/2000/svg">
<path d="M26.1625 21.6125L23.8062 19.2563C24.05 17.9834 23.6844 16.7917 22.7094 15.6813C21.7344 14.5709 20.475 14.1375 18.9312 14.3813L16.575 12.025C17.0354 11.8084 17.5026 11.6459 17.9766 11.5375C18.4505 11.4292 18.9583 11.375 19.5 11.375C21.5312 11.375 23.2578 12.086 24.6797 13.5079C26.1016 14.9297 26.8125 16.6563 26.8125 18.6875C26.8125 19.2292 26.7583 19.737 26.65 20.211C26.5417 20.6849 26.3792 21.1521 26.1625 21.6125ZM31.3625 26.7313L29.0062 24.4563C30.0354 23.6709 30.9495 22.811 31.7484 21.8766C32.5474 20.9422 33.2312 19.8792 33.8 18.6875C32.4458 15.9521 30.5026 13.7787 27.9703 12.1672C25.438 10.5558 22.6146 9.75005 19.5 9.75005C18.7146 9.75005 17.9427 9.80422 17.1844 9.91255C16.426 10.0209 15.6812 10.1834 14.95 10.4L12.4312 7.8813C13.5417 7.42088 14.6792 7.07557 15.8437 6.84536C17.0083 6.61515 18.2271 6.50005 19.5 6.50005C23.5896 6.50005 27.2323 7.63078 30.4281 9.89224C33.624 12.1537 35.9396 15.0855 37.375 18.6875C36.7521 20.2855 35.9328 21.7683 34.9172 23.136C33.9016 24.5037 32.7167 25.7021 31.3625 26.7313ZM32.175 36.7251L25.35 29.9813C24.4021 30.2792 23.4474 30.5027 22.4859 30.6516C21.5245 30.8006 20.5292 30.8751 19.5 30.8751C15.4104 30.8751 11.7677 29.7443 8.57187 27.4829C5.37604 25.2214 3.06042 22.2896 1.625 18.6875C2.19375 17.2521 2.91146 15.9183 3.77812 14.686C4.64479 13.4537 5.63333 12.35 6.74375 11.375L2.275 6.82505L4.55 4.55005L34.45 34.4501L32.175 36.7251ZM9.01875 13.65C8.23333 14.3542 7.51562 15.1261 6.86562 15.9657C6.21562 16.8053 5.66042 17.7125 5.2 18.6875C6.55417 21.423 8.4974 23.5964 11.0297 25.2079C13.562 26.8193 16.3854 27.6251 19.5 27.6251C20.0417 27.6251 20.5698 27.5912 21.0844 27.5235C21.599 27.4558 22.1271 27.3813 22.6687 27.3001L21.2062 25.7563C20.9083 25.8375 20.624 25.8985 20.3531 25.9391C20.0823 25.9797 19.7979 26.0001 19.5 26.0001C17.4687 26.0001 15.7422 25.2891 14.3203 23.8672C12.8984 22.4454 12.1875 20.7188 12.1875 18.6875C12.1875 18.3896 12.2078 18.1053 12.2484 17.8344C12.2891 17.5636 12.35 17.2792 12.4312 16.9813L9.01875 13.65Z" fill="#00296B" fill-opacity="0.75"/>
</svg>
