<svg width="39" height="39" viewBox="0 0 39 39" fill="none" xmlns="http://www.w3.org/2000/svg">
<path d="M19.5 26C21.5312 26 23.2578 25.2891 24.6797 23.8672C26.1016 22.4453 26.8125 20.7187 26.8125 18.6875C26.8125 16.6562 26.1016 14.9297 24.6797 13.5078C23.2578 12.0859 21.5312 11.375 19.5 11.375C17.4687 11.375 15.7422 12.0859 14.3203 13.5078C12.8984 14.9297 12.1875 16.6562 12.1875 18.6875C12.1875 20.7187 12.8984 22.4453 14.3203 23.8672C15.7422 25.2891 17.4687 26 19.5 26ZM19.5 23.075C18.2812 23.075 17.2453 22.6484 16.3922 21.7953C15.5391 20.9422 15.1125 19.9062 15.1125 18.6875C15.1125 17.4687 15.5391 16.4328 16.3922 15.5797C17.2453 14.7266 18.2812 14.3 19.5 14.3C20.7187 14.3 21.7547 14.7266 22.6078 15.5797C23.4609 16.4328 23.8875 17.4687 23.8875 18.6875C23.8875 19.9062 23.4609 20.9422 22.6078 21.7953C21.7547 22.6484 20.7187 23.075 19.5 23.075ZM19.5 30.875C15.5458 30.875 11.9437 29.7714 8.69375 27.5641C5.44375 25.3568 3.0875 22.3979 1.625 18.6875C3.0875 14.9771 5.44375 12.0182 8.69375 9.81094C11.9437 7.60365 15.5458 6.5 19.5 6.5C23.4542 6.5 27.0562 7.60365 30.3062 9.81094C33.5562 12.0182 35.9125 14.9771 37.375 18.6875C35.9125 22.3979 33.5562 25.3568 30.3062 27.5641C27.0562 29.7714 23.4542 30.875 19.5 30.875ZM19.5 27.625C22.5604 27.625 25.3703 26.8193 27.9297 25.2078C30.4891 23.5964 32.4458 21.4229 33.8 18.6875C32.4458 15.9521 30.4891 13.7786 27.9297 12.1672C25.3703 10.5557 22.5604 9.75 19.5 9.75C16.4396 9.75 13.6297 10.5557 11.0703 12.1672C8.51094 13.7786 6.55417 15.9521 5.2 18.6875C6.55417 21.4229 8.51094 23.5964 11.0703 25.2078C13.6297 26.8193 16.4396 27.625 19.5 27.625Z" fill="#00296B" fill-opacity="0.75"/>
</svg>
